<?xml version="1.0" encoding="utf-8"?>
<!-- Generator: Adobe Illustrator 27.5.0, SVG Export Plug-In . SVG Version: 6.00 Build 0)  -->
<svg version="1.1" xmlns="http://www.w3.org/2000/svg" xmlns:xlink="http://www.w3.org/1999/xlink" x="0px" y="0px"
	 viewBox="0 0 500 500" style="enable-background:new 0 0 500 500;" xml:space="preserve">
<g id="Background_Simple">
	<g>
		<path style="fill:#92E3A9;" d="M462.775,357.676c34.449-81.566,38.807-196.845-20.569-268.45
			c-32.747-39.492-84.276-52.623-133.468-55.558c-44.082-2.631-91.271-1.58-131.323,19.281C109.526,88.309,107.851,172.389,57,222
			c-41,40-58,97-23,172s100,92,164,68s93-29,170.001-17c35.39,5.515,61.069-21.043,76.596-49.655
			C451.254,383.078,457.357,370.502,462.775,357.676z"/>
		<path style="opacity:0.7;fill:#FFFFFF;" d="M462.775,357.676c34.449-81.566,38.807-196.845-20.569-268.45
			c-32.747-39.492-84.276-52.623-133.468-55.558c-44.082-2.631-91.271-1.58-131.323,19.281C109.526,88.309,107.851,172.389,57,222
			c-41,40-58,97-23,172s100,92,164,68s93-29,170.001-17c35.39,5.515,61.069-21.043,76.596-49.655
			C451.254,383.078,457.357,370.502,462.775,357.676z"/>
	</g>
</g>
<g id="Graphics">
	<g style="opacity:0.2;">
		<polyline style="fill:none;stroke:#000000;stroke-linecap:round;stroke-linejoin:round;stroke-miterlimit:10;" points="
			115.11,35.189 159.605,35.189 159.605,94.04 103.888,94.04 		"/>
		<polyline style="fill:none;stroke:#000000;stroke-linecap:round;stroke-linejoin:round;stroke-miterlimit:10;" points="
			98.069,94.04 84.519,94.04 84.519,35.189 109.291,35.189 		"/>
		<g>
			
				<rect x="90.189" y="52.267" style="fill:none;stroke:#000000;stroke-linecap:round;stroke-linejoin:round;stroke-miterlimit:10;" width="8.237" height="8.237"/>
			
				<rect x="101.291" y="52.267" style="fill:none;stroke:#000000;stroke-linecap:round;stroke-linejoin:round;stroke-miterlimit:10;" width="8.237" height="8.237"/>
			
				<rect x="112.393" y="52.267" style="fill:none;stroke:#000000;stroke-linecap:round;stroke-linejoin:round;stroke-miterlimit:10;" width="8.237" height="8.237"/>
			
				<rect x="123.495" y="52.267" style="fill:none;stroke:#000000;stroke-linecap:round;stroke-linejoin:round;stroke-miterlimit:10;" width="8.237" height="8.237"/>
			
				<rect x="134.597" y="52.267" style="fill:none;stroke:#000000;stroke-linecap:round;stroke-linejoin:round;stroke-miterlimit:10;" width="8.237" height="8.237"/>
			
				<rect x="145.699" y="52.267" style="fill:none;stroke:#000000;stroke-linecap:round;stroke-linejoin:round;stroke-miterlimit:10;" width="8.237" height="8.237"/>
		</g>
		<g>
			
				<rect x="90.189" y="63.728" style="fill:none;stroke:#000000;stroke-linecap:round;stroke-linejoin:round;stroke-miterlimit:10;" width="8.237" height="8.237"/>
			
				<rect x="101.291" y="63.728" style="fill:none;stroke:#000000;stroke-linecap:round;stroke-linejoin:round;stroke-miterlimit:10;" width="8.237" height="8.237"/>
			
				<rect x="112.393" y="63.728" style="fill:none;stroke:#000000;stroke-linecap:round;stroke-linejoin:round;stroke-miterlimit:10;" width="8.237" height="8.237"/>
			
				<rect x="123.495" y="63.728" style="fill:none;stroke:#000000;stroke-linecap:round;stroke-linejoin:round;stroke-miterlimit:10;" width="8.237" height="8.237"/>
			
				<rect x="134.597" y="63.728" style="fill:none;stroke:#000000;stroke-linecap:round;stroke-linejoin:round;stroke-miterlimit:10;" width="8.237" height="8.237"/>
			
				<rect x="145.699" y="63.728" style="fill:none;stroke:#000000;stroke-linecap:round;stroke-linejoin:round;stroke-miterlimit:10;" width="8.237" height="8.237"/>
		</g>
		<g>
			
				<rect x="90.189" y="75.188" style="fill:none;stroke:#000000;stroke-linecap:round;stroke-linejoin:round;stroke-miterlimit:10;" width="8.237" height="8.237"/>
			
				<rect x="101.291" y="75.188" style="fill:none;stroke:#000000;stroke-linecap:round;stroke-linejoin:round;stroke-miterlimit:10;" width="8.237" height="8.237"/>
			
				<rect x="112.393" y="75.188" style="fill:none;stroke:#000000;stroke-linecap:round;stroke-linejoin:round;stroke-miterlimit:10;" width="8.237" height="8.237"/>
			
				<rect x="123.495" y="75.188" style="fill:none;stroke:#000000;stroke-linecap:round;stroke-linejoin:round;stroke-miterlimit:10;" width="8.237" height="8.237"/>
			
				<rect x="134.597" y="75.188" style="fill:none;stroke:#000000;stroke-linecap:round;stroke-linejoin:round;stroke-miterlimit:10;" width="8.237" height="8.237"/>
			
				<rect x="145.699" y="75.188" style="fill:none;stroke:#000000;stroke-linecap:round;stroke-linejoin:round;stroke-miterlimit:10;" width="8.237" height="8.237"/>
		</g>
		
			<rect x="90.502" y="43.314" style="fill:none;stroke:#000000;stroke-linecap:round;stroke-linejoin:round;stroke-miterlimit:10;" width="63.747" height="2.865"/>
	</g>
	<g style="opacity:0.2;">
		<polyline style="fill:none;stroke:#000000;stroke-linecap:round;stroke-linejoin:round;stroke-miterlimit:10;" points="
			442.209,102.455 470.281,102.455 470.281,161.306 462.99,161.306 		"/>
		<polyline style="fill:none;stroke:#000000;stroke-linecap:round;stroke-linejoin:round;stroke-miterlimit:10;" points="
			458.003,161.306 395.195,161.306 395.195,102.455 435.559,102.455 		"/>
		<g>
			
				<rect x="400.865" y="119.533" style="fill:none;stroke:#000000;stroke-linecap:round;stroke-linejoin:round;stroke-miterlimit:10;" width="8.237" height="8.237"/>
			
				<rect x="411.967" y="119.533" style="fill:none;stroke:#000000;stroke-linecap:round;stroke-linejoin:round;stroke-miterlimit:10;" width="8.237" height="8.237"/>
			
				<rect x="423.069" y="119.533" style="fill:none;stroke:#000000;stroke-linecap:round;stroke-linejoin:round;stroke-miterlimit:10;" width="8.237" height="8.237"/>
			
				<rect x="434.171" y="119.533" style="fill:none;stroke:#000000;stroke-linecap:round;stroke-linejoin:round;stroke-miterlimit:10;" width="8.237" height="8.237"/>
			
				<rect x="445.273" y="119.533" style="fill:none;stroke:#000000;stroke-linecap:round;stroke-linejoin:round;stroke-miterlimit:10;" width="8.237" height="8.237"/>
			
				<rect x="456.375" y="119.533" style="fill:none;stroke:#000000;stroke-linecap:round;stroke-linejoin:round;stroke-miterlimit:10;" width="8.237" height="8.237"/>
		</g>
		<g>
			
				<rect x="400.865" y="130.993" style="fill:none;stroke:#000000;stroke-linecap:round;stroke-linejoin:round;stroke-miterlimit:10;" width="8.237" height="8.237"/>
			
				<rect x="411.967" y="130.993" style="fill:none;stroke:#000000;stroke-linecap:round;stroke-linejoin:round;stroke-miterlimit:10;" width="8.237" height="8.237"/>
			
				<rect x="423.069" y="130.993" style="fill:none;stroke:#000000;stroke-linecap:round;stroke-linejoin:round;stroke-miterlimit:10;" width="8.237" height="8.237"/>
			
				<rect x="434.171" y="130.993" style="fill:none;stroke:#000000;stroke-linecap:round;stroke-linejoin:round;stroke-miterlimit:10;" width="8.237" height="8.237"/>
			
				<rect x="445.273" y="130.993" style="fill:none;stroke:#000000;stroke-linecap:round;stroke-linejoin:round;stroke-miterlimit:10;" width="8.237" height="8.237"/>
			
				<rect x="456.375" y="130.993" style="fill:none;stroke:#000000;stroke-linecap:round;stroke-linejoin:round;stroke-miterlimit:10;" width="8.237" height="8.237"/>
		</g>
		<g>
			
				<rect x="400.865" y="142.453" style="fill:none;stroke:#000000;stroke-linecap:round;stroke-linejoin:round;stroke-miterlimit:10;" width="8.237" height="8.237"/>
			
				<rect x="411.967" y="142.453" style="fill:none;stroke:#000000;stroke-linecap:round;stroke-linejoin:round;stroke-miterlimit:10;" width="8.237" height="8.237"/>
			
				<rect x="423.069" y="142.453" style="fill:none;stroke:#000000;stroke-linecap:round;stroke-linejoin:round;stroke-miterlimit:10;" width="8.237" height="8.237"/>
			
				<rect x="434.171" y="142.453" style="fill:none;stroke:#000000;stroke-linecap:round;stroke-linejoin:round;stroke-miterlimit:10;" width="8.237" height="8.237"/>
			
				<rect x="445.273" y="142.453" style="fill:none;stroke:#000000;stroke-linecap:round;stroke-linejoin:round;stroke-miterlimit:10;" width="8.237" height="8.237"/>
			
				<rect x="456.375" y="142.453" style="fill:none;stroke:#000000;stroke-linecap:round;stroke-linejoin:round;stroke-miterlimit:10;" width="8.237" height="8.237"/>
		</g>
		
			<rect x="401.178" y="110.58" style="fill:none;stroke:#000000;stroke-linecap:round;stroke-linejoin:round;stroke-miterlimit:10;" width="63.747" height="2.865"/>
	</g>
	<g style="opacity:0.2;">
		<path style="fill:none;stroke:#000000;stroke-linecap:round;stroke-linejoin:round;stroke-miterlimit:10;" d="M47.398,196.573
			v-30.717c0-2.112,1.712-3.824,3.824-3.824h47.97c2.112,0,3.824,1.712,3.824,3.824v44.146H47.398v-6.779"/>
		
			<line style="fill:none;stroke:#000000;stroke-linecap:round;stroke-linejoin:round;stroke-miterlimit:10;" x1="48.093" y1="172.46" x2="102.32" y2="172.46"/>
		<polyline style="fill:none;stroke:#000000;stroke-linecap:round;stroke-linejoin:round;stroke-miterlimit:10;" points="
			61.078,181.498 52.96,181.498 52.96,187.755 97.454,187.755 97.454,181.498 69.391,181.498 		"/>
		
			<rect x="52.96" y="194.708" style="fill:none;stroke:#000000;stroke-linecap:round;stroke-linejoin:round;stroke-miterlimit:10;" width="44.494" height="6.257"/>
	</g>
	<g style="opacity:0.2;">
		<path style="fill:none;stroke:#000000;stroke-linecap:round;stroke-linejoin:round;stroke-miterlimit:10;" d="M329.016,468.002
			h-55.617v-44.146c0-2.112,1.712-3.824,3.824-3.824h47.97c2.112,0,3.824,1.712,3.824,3.824V468.002z"/>
		
			<line style="fill:none;stroke:#000000;stroke-linecap:round;stroke-linejoin:round;stroke-miterlimit:10;" x1="274.093" y1="430.461" x2="328.32" y2="430.461"/>
		
			<rect x="278.96" y="439.498" style="fill:none;stroke:#000000;stroke-linecap:round;stroke-linejoin:round;stroke-miterlimit:10;" width="44.494" height="6.257"/>
		
			<rect x="278.96" y="452.707" style="fill:none;stroke:#000000;stroke-linecap:round;stroke-linejoin:round;stroke-miterlimit:10;" width="44.494" height="6.257"/>
	</g>
	<g style="opacity:0.2;">
		<path style="fill:none;stroke:#000000;stroke-linecap:round;stroke-linejoin:round;stroke-miterlimit:10;" d="M287.959,45.712
			c-5.508-4.975-12.807-8.004-20.813-8.004c-17.155,0-31.062,13.907-31.062,31.062c0,8.545,3.45,16.284,9.034,21.9"/>
		<path style="fill:none;stroke:#000000;stroke-linecap:round;stroke-linejoin:round;stroke-miterlimit:10;" d="M248.659,93.734
			c5.166,3.832,11.562,6.098,18.487,6.098c17.155,0,31.062-13.907,31.062-31.062c0-7.871-2.928-15.058-7.753-20.532"/>
		<polyline style="fill:none;stroke:#000000;stroke-linecap:round;stroke-linejoin:round;stroke-miterlimit:10;" points="
			281.359,68.77 267.146,68.77 267.146,92.902 		"/>
	</g>
	<g style="opacity:0.2;">
		<g>
			<path style="fill:none;stroke:#000000;stroke-linecap:round;stroke-linejoin:round;stroke-miterlimit:10;" d="M47.312,90.26
				c-7.489,1.153-13.223,7.626-13.223,15.437c0,8.627,6.993,15.62,15.62,15.62c1.929,0,3.776-0.349,5.481-0.989"/>
			<path style="fill:none;stroke:#000000;stroke-linecap:round;stroke-linejoin:round;stroke-miterlimit:10;" d="M60.267,117.209
				c3.112-2.855,5.062-6.956,5.062-11.512c0-7.981-5.985-14.563-13.712-15.505"/>
		</g>
		<g>
			<line style="fill:none;stroke:#000000;stroke-miterlimit:10;" x1="49.709" y1="97.74" x2="49.709" y2="113.655"/>
			<line style="fill:none;stroke:#000000;stroke-miterlimit:10;" x1="57.667" y1="105.698" x2="41.752" y2="105.698"/>
		</g>
	</g>
	<g style="opacity:0.2;">
		<g>
			
				<circle style="fill:none;stroke:#000000;stroke-linecap:round;stroke-linejoin:round;stroke-miterlimit:10;" cx="470.027" cy="227.411" r="15.62"/>
		</g>
		<g>
			<line style="fill:none;stroke:#000000;stroke-miterlimit:10;" x1="470.027" y1="219.454" x2="470.027" y2="235.368"/>
			<line style="fill:none;stroke:#000000;stroke-miterlimit:10;" x1="477.985" y1="227.411" x2="462.07" y2="227.411"/>
		</g>
	</g>
</g>
<g id="Task_Panel_1_">
	<g>
		<g>
			<g>
				<path style="fill:#FFFFFF;stroke:#263238;stroke-linecap:round;stroke-linejoin:round;stroke-miterlimit:10;" d="M441,436H82
					l0.422-295.531c0-5.925,4.803-10.729,10.729-10.729h337.542c5.925,0,10.729,4.803,10.729,10.729L441,436z"/>
				
					<rect x="129.746" y="155.999" style="fill:none;stroke:#263238;stroke-linecap:round;stroke-linejoin:round;stroke-miterlimit:10;" width="50.967" height="10.493"/>
				
					<line style="fill:none;stroke:#263238;stroke-linecap:round;stroke-linejoin:round;stroke-miterlimit:10;" x1="335.236" y1="170.29" x2="428.193" y2="170.29"/>
				
					<line style="fill:none;stroke:#263238;stroke-linecap:round;stroke-linejoin:round;stroke-miterlimit:10;" x1="102.349" y1="170.29" x2="329.819" y2="170.29"/>
				<g>
					<path style="fill:#263238;stroke:#263238;stroke-linecap:round;stroke-linejoin:round;stroke-miterlimit:10;" d="
						M430.692,129.74H93.15c-5.925,0-10.729,4.803-10.729,10.729v8.168h359v-8.168C441.421,134.544,436.618,129.74,430.692,129.74z"
						/>
					<g>
						<path style="fill:#FFFFFF;stroke:#263238;stroke-linecap:round;stroke-linejoin:round;stroke-miterlimit:10;" d="
							M101.978,140.228c0-1.788-1.449-3.237-3.237-3.237c-1.788,0-3.237,1.449-3.237,3.237c0,1.788,1.449,3.237,3.237,3.237
							C100.529,143.465,101.978,142.016,101.978,140.228z"/>
						<path style="fill:#FFFFFF;stroke:#263238;stroke-linecap:round;stroke-linejoin:round;stroke-miterlimit:10;" d="
							M114.926,140.228c0-1.788-1.449-3.237-3.237-3.237s-3.237,1.449-3.237,3.237c0,1.788,1.449,3.237,3.237,3.237
							S114.926,142.016,114.926,140.228z"/>
						
							<circle style="fill:#FFFFFF;stroke:#263238;stroke-linecap:round;stroke-linejoin:round;stroke-miterlimit:10;" cx="124.637" cy="140.228" r="3.237"/>
					</g>
				</g>
				<g>
					
						<line style="fill:none;stroke:#263238;stroke-linecap:round;stroke-linejoin:round;stroke-miterlimit:10;" x1="103.138" y1="156.624" x2="118.503" y2="156.624"/>
					
						<line style="fill:none;stroke:#263238;stroke-linecap:round;stroke-linejoin:round;stroke-miterlimit:10;" x1="103.138" y1="160.746" x2="118.503" y2="160.746"/>
					
						<line style="fill:none;stroke:#263238;stroke-linecap:round;stroke-linejoin:round;stroke-miterlimit:10;" x1="103.138" y1="164.869" x2="118.503" y2="164.869"/>
				</g>
				<g>
					<path style="fill:#263238;" d="M105.983,193.057v-13.235h-2.715v-1.494h7.07v1.494h-2.715v13.235H105.983z"/>
					<path style="fill:#263238;" d="M112.337,190.09l-0.568,2.967h-1.515l2.819-14.729h2.378l2.819,14.729h-1.641l-0.568-2.967
						H112.337z M112.548,188.68h3.282l-1.662-8.501L112.548,188.68z"/>
					<path style="fill:#263238;" d="M125.931,181.862v0.399h-1.558v-0.483c0-1.326-0.505-2.105-1.684-2.105
						c-1.178,0-1.683,0.778-1.683,2.083c0,3.304,4.944,3.619,4.944,7.765c0,2.23-1.073,3.683-3.324,3.683
						c-2.252,0-3.304-1.452-3.304-3.683v-0.842h1.536v0.926c0,1.326,0.547,2.105,1.726,2.105c1.178,0,1.725-0.778,1.725-2.105
						c0-3.282-4.923-3.598-4.923-7.743c0-2.273,1.052-3.683,3.261-3.683C124.878,178.18,125.931,179.632,125.931,181.862z"/>
					<path style="fill:#263238;" d="M129.887,186.66l-0.862,1.451v4.945h-1.642v-14.729h1.642v7.112l3.913-7.112h1.662l-3.724,6.713
						l3.851,8.017h-1.684L129.887,186.66z"/>
					<path style="fill:#263238;" d="M142.261,181.862v0.399h-1.558v-0.483c0-1.326-0.505-2.105-1.684-2.105
						c-1.178,0-1.683,0.778-1.683,2.083c0,3.304,4.944,3.619,4.944,7.765c0,2.23-1.073,3.683-3.324,3.683
						c-2.252,0-3.304-1.452-3.304-3.683v-0.842h1.536v0.926c0,1.326,0.547,2.105,1.726,2.105c1.178,0,1.725-0.778,1.725-2.105
						c0-3.282-4.923-3.598-4.923-7.743c0-2.273,1.052-3.683,3.261-3.683C141.208,178.18,142.261,179.632,142.261,181.862z"/>
				</g>
			</g>
			<g>
				
					<rect x="102.599" y="275.753" style="fill:#FFFFFF;stroke:#263238;stroke-linecap:round;stroke-linejoin:round;stroke-miterlimit:10;" width="225.906" height="60.355"/>
				<g>
					<g>
						<path style="fill:#263238;" d="M276.679,291.496c0.99,0,1.414,0.585,1.414,1.539v0.756c0,1-0.469,1.522-1.468,1.522h-0.621
							v2.485h-0.702v-6.302H276.679z M276.625,294.682c0.522,0,0.774-0.243,0.774-0.846v-0.837c0-0.576-0.207-0.864-0.721-0.864
							h-0.675v2.548H276.625z"/>
						<path style="fill:#263238;" d="M280.045,291.496c0.99,0,1.404,0.504,1.404,1.44v0.513c0,0.693-0.243,1.125-0.783,1.296
							c0.576,0.171,0.792,0.639,0.792,1.314v0.981c0,0.279,0.009,0.54,0.126,0.756h-0.711c-0.081-0.18-0.117-0.342-0.117-0.765
							v-0.99c0-0.711-0.333-0.937-0.918-0.937h-0.495v2.692h-0.702v-6.302H280.045z M279.865,294.466
							c0.558,0,0.891-0.18,0.891-0.864v-0.603c0-0.567-0.207-0.864-0.729-0.864h-0.684v2.332H279.865z"/>
						<path style="fill:#263238;" d="M282.132,293.017c0-0.963,0.478-1.584,1.44-1.584c0.973,0,1.45,0.621,1.45,1.584v3.259
							c0,0.954-0.478,1.585-1.45,1.585c-0.963,0-1.44-0.63-1.44-1.585V293.017z M282.825,296.312c0,0.576,0.243,0.909,0.747,0.909
							c0.514,0,0.748-0.333,0.748-0.909v-3.331c0-0.567-0.234-0.909-0.748-0.909c-0.504,0-0.747,0.342-0.747,0.909V296.312z"/>
						<path style="fill:#263238;" d="M288.469,293.017v0.54h-0.666v-0.576c0-0.567-0.225-0.909-0.738-0.909
							c-0.504,0-0.738,0.342-0.738,0.909v3.331c0,0.567,0.234,0.909,0.738,0.909c0.514,0,0.738-0.342,0.738-0.909v-1.26h-0.648
							v-0.63h1.314v1.854c0,0.954-0.45,1.585-1.422,1.585c-0.964,0-1.414-0.63-1.414-1.585v-3.259c0-0.954,0.45-1.584,1.414-1.584
							C288.019,291.432,288.469,292.062,288.469,293.017z"/>
						<path style="fill:#263238;" d="M290.539,291.496c0.99,0,1.404,0.504,1.404,1.44v0.513c0,0.693-0.243,1.125-0.783,1.296
							c0.576,0.171,0.792,0.639,0.792,1.314v0.981c0,0.279,0.009,0.54,0.126,0.756h-0.711c-0.081-0.18-0.117-0.342-0.117-0.765
							v-0.99c0-0.711-0.333-0.937-0.918-0.937h-0.495v2.692h-0.702v-6.302H290.539z M290.359,294.466
							c0.558,0,0.891-0.18,0.891-0.864v-0.603c0-0.567-0.207-0.864-0.729-0.864h-0.684v2.332H290.359z"/>
						<path style="fill:#263238;" d="M294.922,294.286v0.63h-1.539v2.242h1.891v0.639h-2.593v-6.302h2.593v0.639h-1.891v2.151
							H294.922z"/>
						<path style="fill:#263238;" d="M298.647,293.008v0.171h-0.666v-0.207c0-0.567-0.216-0.9-0.721-0.9
							c-0.504,0-0.72,0.333-0.72,0.891c0,1.414,2.115,1.548,2.115,3.322c0,0.955-0.459,1.576-1.422,1.576
							c-0.964,0-1.414-0.621-1.414-1.576v-0.36h0.657v0.396c0,0.567,0.234,0.9,0.738,0.9c0.505,0,0.738-0.333,0.738-0.9
							c0-1.404-2.106-1.54-2.106-3.313c0-0.972,0.45-1.575,1.396-1.575C298.197,291.432,298.647,292.054,298.647,293.008z"/>
						<path style="fill:#263238;" d="M301.996,293.008v0.171h-0.666v-0.207c0-0.567-0.216-0.9-0.721-0.9
							c-0.504,0-0.72,0.333-0.72,0.891c0,1.414,2.115,1.548,2.115,3.322c0,0.955-0.459,1.576-1.422,1.576
							c-0.964,0-1.414-0.621-1.414-1.576v-0.36h0.657v0.396c0,0.567,0.234,0.9,0.738,0.9c0.504,0,0.738-0.333,0.738-0.9
							c0-1.404-2.106-1.54-2.106-3.313c0-0.972,0.45-1.575,1.396-1.575C301.546,291.432,301.996,292.054,301.996,293.008z"/>
					</g>
					<g>
						<path style="fill:#263238;" d="M231.529,291.496c0.98,0,1.431,0.594,1.431,1.566v3.178c0,0.963-0.45,1.558-1.431,1.558h-1.477
							v-6.302H231.529z M231.519,297.158c0.505,0,0.748-0.315,0.748-0.891v-3.241c0-0.576-0.243-0.891-0.757-0.891h-0.756v5.023
							H231.519z"/>
						<path style="fill:#263238;" d="M235.858,294.286v0.63h-1.539v2.242h1.891v0.639h-2.593v-6.302h2.593v0.639h-1.891v2.151
							H235.858z"/>
						<path style="fill:#263238;" d="M237.567,296.528l-0.243,1.27h-0.648l1.207-6.302h1.017l1.207,6.302h-0.702l-0.243-1.27
							H237.567z M237.657,295.925h1.404l-0.711-3.637L237.657,295.925z"/>
						<path style="fill:#263238;" d="M242.131,291.496c0.98,0,1.431,0.594,1.431,1.566v3.178c0,0.963-0.45,1.558-1.431,1.558h-1.477
							v-6.302H242.131z M242.121,297.158c0.505,0,0.748-0.315,0.748-0.891v-3.241c0-0.576-0.243-0.891-0.757-0.891h-0.756v5.023
							H242.121z"/>
						<path style="fill:#263238;" d="M244.219,297.797v-6.302h0.702v5.663h1.801v0.639H244.219z"/>
						<path style="fill:#263238;" d="M247.953,291.496v6.302h-0.702v-6.302H247.953z"/>
						<path style="fill:#263238;" d="M249.294,297.797h-0.63v-6.302h0.891l1.459,4.555v-4.555h0.621v6.302h-0.73l-1.611-5.096
							V297.797z"/>
						<path style="fill:#263238;" d="M254.596,294.286v0.63h-1.539v2.242h1.891v0.639h-2.593v-6.302h2.593v0.639h-1.891v2.151
							H254.596z"/>
					</g>
					<g>
						<g>
							
								<line style="fill:none;stroke:#263238;stroke-linecap:round;stroke-linejoin:round;stroke-miterlimit:10;" x1="190.113" y1="298.696" x2="203.267" y2="298.696"/>
							
								<line style="fill:none;stroke:#263238;stroke-linecap:round;stroke-linejoin:round;stroke-miterlimit:10;" x1="150.652" y1="298.696" x2="185.378" y2="298.696"/>
							
								<line style="fill:none;stroke:#263238;stroke-linecap:round;stroke-linejoin:round;stroke-miterlimit:10;" x1="113.792" y1="298.696" x2="145.391" y2="298.696"/>
							
								<line style="fill:none;stroke:#263238;stroke-linecap:round;stroke-linejoin:round;stroke-miterlimit:10;" x1="170.646" y1="313.664" x2="180.704" y2="313.664"/>
							
								<line style="fill:none;stroke:#263238;stroke-linecap:round;stroke-linejoin:round;stroke-miterlimit:10;" x1="144.865" y1="313.664" x2="162.227" y2="313.664"/>
							
								<line style="fill:none;stroke:#263238;stroke-linecap:round;stroke-linejoin:round;stroke-miterlimit:10;" x1="132.237" y1="313.664" x2="139.603" y2="313.664"/>
							
								<line style="fill:none;stroke:#263238;stroke-linecap:round;stroke-linejoin:round;stroke-miterlimit:10;" x1="113.792" y1="313.664" x2="128.028" y2="313.664"/>
						</g>
						<path style="fill:#FFFFFF;stroke:#263238;stroke-linecap:round;stroke-linejoin:round;stroke-miterlimit:10;" d="
							M320.14,310.87c0,1.3-0.53,2.48-1.38,3.33c-0.86,0.86-2.04,1.39-3.34,1.39h-49.55c-2.61,0-4.73-2.12-4.73-4.72
							c0-1.31,0.53-2.49,1.39-3.34c0.85-0.86,2.03-1.39,3.34-1.39h49.55C318.03,306.14,320.14,308.26,320.14,310.87z"/>
						<path style="fill:#92E3A9;stroke:#263238;stroke-linecap:round;stroke-linejoin:round;stroke-miterlimit:10;" d="
							M305.37,306.14v9.45h-39.5c-2.61,0-4.73-2.12-4.73-4.72c0-1.31,0.53-2.49,1.39-3.34c0.85-0.86,2.03-1.39,3.34-1.39H305.37z"/>
						<path style="fill:#FFFFFF;stroke:#263238;stroke-linecap:round;stroke-linejoin:round;stroke-miterlimit:10;" d="
							M251.755,315.59h-19.551c-2.609,0-4.724-2.115-4.724-4.724v0c0-2.609,2.115-4.724,4.724-4.724h19.551
							c2.609,0,4.724,2.115,4.724,4.724v0C256.479,313.475,254.364,315.59,251.755,315.59z"/>
					</g>
				</g>
			</g>
			<g>
				
					<rect x="102.599" y="352.764" style="fill:#FFFFFF;stroke:#263238;stroke-linecap:round;stroke-linejoin:round;stroke-miterlimit:10;" width="225.906" height="60.355"/>
				<g>
					<g>
						<path style="fill:#263238;" d="M276.679,369.779c0.99,0,1.414,0.585,1.414,1.539v0.756c0,0.999-0.469,1.521-1.468,1.521
							h-0.621v2.485h-0.702v-6.302H276.679z M276.625,372.966c0.522,0,0.774-0.243,0.774-0.846v-0.837
							c0-0.576-0.207-0.864-0.721-0.864h-0.675v2.548H276.625z"/>
						<path style="fill:#263238;" d="M280.045,369.779c0.99,0,1.404,0.504,1.404,1.44v0.513c0,0.693-0.243,1.125-0.783,1.296
							c0.576,0.171,0.792,0.639,0.792,1.314v0.981c0,0.279,0.009,0.54,0.126,0.756h-0.711c-0.081-0.18-0.117-0.342-0.117-0.765
							v-0.99c0-0.711-0.333-0.937-0.918-0.937h-0.495v2.692h-0.702v-6.302H280.045z M279.865,372.75c0.558,0,0.891-0.18,0.891-0.864
							v-0.603c0-0.567-0.207-0.864-0.729-0.864h-0.684v2.332H279.865z"/>
						<path style="fill:#263238;" d="M282.132,371.301c0-0.963,0.478-1.585,1.44-1.585c0.973,0,1.45,0.621,1.45,1.585v3.259
							c0,0.954-0.478,1.584-1.45,1.584c-0.963,0-1.44-0.63-1.44-1.584V371.301z M282.825,374.596c0,0.576,0.243,0.909,0.747,0.909
							c0.514,0,0.748-0.333,0.748-0.909v-3.331c0-0.567-0.234-0.909-0.748-0.909c-0.504,0-0.747,0.342-0.747,0.909V374.596z"/>
						<path style="fill:#263238;" d="M288.469,371.301v0.54h-0.666v-0.576c0-0.567-0.225-0.909-0.738-0.909
							c-0.504,0-0.738,0.342-0.738,0.909v3.331c0,0.567,0.234,0.909,0.738,0.909c0.514,0,0.738-0.342,0.738-0.909v-1.26h-0.648
							v-0.63h1.314v1.854c0,0.954-0.45,1.584-1.422,1.584c-0.964,0-1.414-0.63-1.414-1.584v-3.259c0-0.955,0.45-1.585,1.414-1.585
							C288.019,369.716,288.469,370.346,288.469,371.301z"/>
						<path style="fill:#263238;" d="M290.539,369.779c0.99,0,1.404,0.504,1.404,1.44v0.513c0,0.693-0.243,1.125-0.783,1.296
							c0.576,0.171,0.792,0.639,0.792,1.314v0.981c0,0.279,0.009,0.54,0.126,0.756h-0.711c-0.081-0.18-0.117-0.342-0.117-0.765
							v-0.99c0-0.711-0.333-0.937-0.918-0.937h-0.495v2.692h-0.702v-6.302H290.539z M290.359,372.75c0.558,0,0.891-0.18,0.891-0.864
							v-0.603c0-0.567-0.207-0.864-0.729-0.864h-0.684v2.332H290.359z"/>
						<path style="fill:#263238;" d="M294.922,372.57v0.63h-1.539v2.242h1.891v0.639h-2.593v-6.302h2.593v0.639h-1.891v2.151
							H294.922z"/>
						<path style="fill:#263238;" d="M298.647,371.292v0.171h-0.666v-0.207c0-0.567-0.216-0.9-0.721-0.9
							c-0.504,0-0.72,0.333-0.72,0.891c0,1.413,2.115,1.548,2.115,3.322c0,0.954-0.459,1.576-1.422,1.576
							c-0.964,0-1.414-0.621-1.414-1.576v-0.36h0.657v0.396c0,0.567,0.234,0.9,0.738,0.9c0.505,0,0.738-0.333,0.738-0.9
							c0-1.404-2.106-1.54-2.106-3.313c0-0.972,0.45-1.575,1.396-1.575C298.197,369.716,298.647,370.337,298.647,371.292z"/>
						<path style="fill:#263238;" d="M301.996,371.292v0.171h-0.666v-0.207c0-0.567-0.216-0.9-0.721-0.9
							c-0.504,0-0.72,0.333-0.72,0.891c0,1.413,2.115,1.548,2.115,3.322c0,0.954-0.459,1.576-1.422,1.576
							c-0.964,0-1.414-0.621-1.414-1.576v-0.36h0.657v0.396c0,0.567,0.234,0.9,0.738,0.9c0.504,0,0.738-0.333,0.738-0.9
							c0-1.404-2.106-1.54-2.106-3.313c0-0.972,0.45-1.575,1.396-1.575C301.546,369.716,301.996,370.337,301.996,371.292z"/>
					</g>
					<g>
						<path style="fill:#263238;" d="M231.529,369.779c0.98,0,1.431,0.594,1.431,1.566v3.178c0,0.963-0.45,1.558-1.431,1.558h-1.477
							v-6.302H231.529z M231.519,375.442c0.505,0,0.748-0.315,0.748-0.891v-3.241c0-0.576-0.243-0.891-0.757-0.891h-0.756v5.023
							H231.519z"/>
						<path style="fill:#263238;" d="M235.858,372.57v0.63h-1.539v2.242h1.891v0.639h-2.593v-6.302h2.593v0.639h-1.891v2.151
							H235.858z"/>
						<path style="fill:#263238;" d="M237.567,374.811l-0.243,1.27h-0.648l1.207-6.302h1.017l1.207,6.302h-0.702l-0.243-1.27
							H237.567z M237.657,374.208h1.404l-0.711-3.637L237.657,374.208z"/>
						<path style="fill:#263238;" d="M242.131,369.779c0.98,0,1.431,0.594,1.431,1.566v3.178c0,0.963-0.45,1.558-1.431,1.558h-1.477
							v-6.302H242.131z M242.121,375.442c0.505,0,0.748-0.315,0.748-0.891v-3.241c0-0.576-0.243-0.891-0.757-0.891h-0.756v5.023
							H242.121z"/>
						<path style="fill:#263238;" d="M244.219,376.081v-6.302h0.702v5.663h1.801v0.639H244.219z"/>
						<path style="fill:#263238;" d="M247.953,369.779v6.302h-0.702v-6.302H247.953z"/>
						<path style="fill:#263238;" d="M249.294,376.081h-0.63v-6.302h0.891l1.459,4.555v-4.555h0.621v6.302h-0.73l-1.611-5.096
							V376.081z"/>
						<path style="fill:#263238;" d="M254.596,372.57v0.63h-1.539v2.242h1.891v0.639h-2.593v-6.302h2.593v0.639h-1.891v2.151
							H254.596z"/>
					</g>
					<g>
						<g>
							
								<line style="fill:none;stroke:#263238;stroke-linecap:round;stroke-linejoin:round;stroke-miterlimit:10;" x1="190.113" y1="376.98" x2="203.267" y2="376.98"/>
							
								<line style="fill:none;stroke:#263238;stroke-linecap:round;stroke-linejoin:round;stroke-miterlimit:10;" x1="150.652" y1="376.98" x2="185.378" y2="376.98"/>
							
								<line style="fill:none;stroke:#263238;stroke-linecap:round;stroke-linejoin:round;stroke-miterlimit:10;" x1="113.792" y1="376.98" x2="145.391" y2="376.98"/>
							
								<line style="fill:none;stroke:#263238;stroke-linecap:round;stroke-linejoin:round;stroke-miterlimit:10;" x1="170.646" y1="391.948" x2="180.704" y2="391.948"/>
							
								<line style="fill:none;stroke:#263238;stroke-linecap:round;stroke-linejoin:round;stroke-miterlimit:10;" x1="144.865" y1="391.948" x2="162.227" y2="391.948"/>
							
								<line style="fill:none;stroke:#263238;stroke-linecap:round;stroke-linejoin:round;stroke-miterlimit:10;" x1="132.237" y1="391.948" x2="139.603" y2="391.948"/>
							
								<line style="fill:none;stroke:#263238;stroke-linecap:round;stroke-linejoin:round;stroke-miterlimit:10;" x1="113.792" y1="391.948" x2="128.028" y2="391.948"/>
						</g>
						<path style="fill:#FFFFFF;stroke:#263238;stroke-linecap:round;stroke-linejoin:round;stroke-miterlimit:10;" d="
							M320.14,389.15c0,1.31-0.53,2.49-1.38,3.34c-0.86,0.85-2.04,1.38-3.34,1.38h-49.55c-2.61,0-4.73-2.11-4.73-4.72
							c0-1.31,0.53-2.49,1.39-3.34c0.85-0.85,2.03-1.38,3.34-1.38h49.55C318.03,384.43,320.14,386.54,320.14,389.15z"/>
						<path style="fill:#92E3A9;stroke:#263238;stroke-linecap:round;stroke-linejoin:round;stroke-miterlimit:10;" d="
							M270.58,384.43v9.44h-4.71c-2.61,0-4.73-2.11-4.73-4.72c0-1.31,0.53-2.49,1.39-3.34c0.85-0.85,2.03-1.38,3.34-1.38H270.58z"/>
						<path style="fill:#FFFFFF;stroke:#263238;stroke-linecap:round;stroke-linejoin:round;stroke-miterlimit:10;" d="
							M251.755,393.874h-19.551c-2.609,0-4.724-2.115-4.724-4.724l0,0c0-2.609,2.115-4.724,4.724-4.724h19.551
							c2.609,0,4.724,2.115,4.724,4.724l0,0C256.479,391.759,254.364,393.874,251.755,393.874z"/>
					</g>
				</g>
			</g>
			<g>
				<path style="fill:#92E3A9;stroke:#263238;stroke-linecap:round;stroke-linejoin:round;stroke-miterlimit:10;" d="
					M426.419,230.546h-79.024c-2.609,0-4.724-2.115-4.724-4.724v-22.333c0-2.609,2.115-4.724,4.724-4.724h79.024
					c2.609,0,4.724,2.115,4.724,4.724v22.333C431.143,228.431,429.028,230.546,426.419,230.546z"/>
				<g>
					<path style="fill:#FFFFFF;" d="M359.625,219.765l-0.568,2.967h-1.515l2.819-14.729h2.378l2.819,14.729h-1.641l-0.568-2.967
						H359.625z M359.836,218.355h3.282l-1.662-8.501L359.836,218.355z"/>
					<path style="fill:#FFFFFF;" d="M370.294,208.002c2.293,0,3.346,1.389,3.346,3.661v7.428c0,2.252-1.053,3.641-3.346,3.641
						h-3.451v-14.729H370.294z M370.272,221.237c1.179,0,1.746-0.736,1.746-2.083v-7.575c0-1.347-0.567-2.083-1.768-2.083h-1.767
						v11.741H370.272z"/>
					<path style="fill:#FFFFFF;" d="M378.627,208.002c2.293,0,3.346,1.389,3.346,3.661v7.428c0,2.252-1.053,3.641-3.346,3.641
						h-3.451v-14.729H378.627z M378.605,221.237c1.179,0,1.746-0.736,1.746-2.083v-7.575c0-1.347-0.567-2.083-1.768-2.083h-1.767
						v11.741H378.605z"/>
					<path style="fill:#FFFFFF;" d="M388.917,222.731v-13.235h-2.715v-1.494h7.07v1.494h-2.715v13.235H388.917z"/>
					<path style="fill:#FFFFFF;" d="M395.271,219.765l-0.568,2.967h-1.515l2.819-14.729h2.378l2.819,14.729h-1.641l-0.568-2.967
						H395.271z M395.482,218.355h3.282l-1.662-8.501L395.482,218.355z"/>
					<path style="fill:#FFFFFF;" d="M408.866,211.537v0.399h-1.558v-0.483c0-1.326-0.505-2.104-1.684-2.104
						c-1.178,0-1.683,0.778-1.683,2.083c0,3.304,4.944,3.619,4.944,7.765c0,2.23-1.073,3.683-3.324,3.683
						c-2.252,0-3.304-1.452-3.304-3.683v-0.842h1.536v0.926c0,1.326,0.547,2.104,1.726,2.104c1.178,0,1.725-0.778,1.725-2.104
						c0-3.282-4.923-3.598-4.923-7.743c0-2.272,1.052-3.683,3.261-3.683C407.813,207.855,408.866,209.307,408.866,211.537z"/>
					<path style="fill:#FFFFFF;" d="M412.822,216.335l-0.862,1.451v4.945h-1.642v-14.729h1.642v7.112l3.913-7.112h1.662
						l-3.724,6.713l3.851,8.017h-1.684L412.822,216.335z"/>
				</g>
			</g>
		</g>
		<g>
			<g>
				<path style="fill:#FFFFFF;stroke:#263238;stroke-linecap:round;stroke-linejoin:round;stroke-miterlimit:10;" d="M355.311,72.12
					c0,0-11.625,5.115-17.67,6.743c-6.045,1.628-12.555,4.185-14.182,9.3c-1.628,5.115-8.89,24.772-9.355,28.957
					c-0.465,4.185,7.03,11.73,7.03,11.73h96.72c0,0,1.794-24.47-2.158-32.84c-3.952-8.37-15.977-15.52-19.464-16.915
					c-3.487-1.395-12.555-5.813-16.275-6.51C376.236,71.888,359.496,70.493,355.311,72.12z"/>
				<path style="fill:#FFFFFF;stroke:#263238;stroke-linecap:round;stroke-linejoin:round;stroke-miterlimit:10;" d="M323.25,106
					c0,0,5.659-2.001,11,2"/>
				<path style="fill:#FFFFFF;stroke:#263238;stroke-linecap:round;stroke-linejoin:round;stroke-miterlimit:10;" d="M331,108
					c0,0,3.25,0,6,2.5"/>
				<g>
					<path style="fill:none;stroke:#263238;stroke-linecap:round;stroke-linejoin:round;stroke-miterlimit:10;" d="M340.876,96.835
						c0.785,1.321,1.347,3.038,1.162,5.165c-0.504,5.795-2.447,10.001-2.447,10.001"/>
					<path style="fill:none;stroke:#263238;stroke-linecap:round;stroke-linejoin:round;stroke-miterlimit:10;" d="M337.502,93.453
						c0,0,1.238,0.676,2.425,2.063"/>
					<path style="fill:none;stroke:#263238;stroke-linecap:round;stroke-linejoin:round;stroke-miterlimit:10;" d="M343.435,96.552
						c0,0,1.861,5.628,0.812,10.182"/>
					<path style="fill:none;stroke:#263238;stroke-linecap:round;stroke-linejoin:round;stroke-miterlimit:10;" d="M393.673,100.02
						c0,0-2.325,8.137-2.093,10.695"/>
				</g>
				<g>
					<polygon style="fill:#92E3A9;stroke:#263238;stroke-linecap:round;stroke-linejoin:round;stroke-miterlimit:10;" points="
						356.692,92.074 360.96,99.755 364.587,111.491 369.708,100.822 374.616,92.287 365.014,90.793 					"/>
					
						<line style="fill:none;stroke:#263238;stroke-linecap:round;stroke-linejoin:round;stroke-miterlimit:10;" x1="360.96" y1="99.755" x2="369.708" y2="100.822"/>
				</g>
				<path style="fill:#FFFFFF;stroke:#263238;stroke-linecap:round;stroke-linejoin:round;stroke-miterlimit:10;" d="
					M356.241,78.398c0,0-1.628,2.093-2.557,4.882c-0.93,2.79-2.557,12.322-2.557,12.322s9.067-0.465,11.392-0.465
					c2.325,0,6.045,0.232,6.742,0.232s11.16,6.277,11.16,6.277s1.86-10.695-0.233-16.74
					C378.095,78.863,363.913,71.655,356.241,78.398z"/>
				<path style="fill:#FFFFFF;stroke:#263238;stroke-linecap:round;stroke-linejoin:round;stroke-miterlimit:10;" d="M361.123,91.59
					l3.678,7.739l7.482-8.436C372.283,90.892,365.308,92.985,361.123,91.59z"/>
			</g>
			<g>
				<path style="fill:#FFFFFF;stroke:#263238;stroke-linecap:round;stroke-linejoin:round;stroke-miterlimit:10;" d="
					M392.296,178.866l-3.583,6.636c0,0-4.442,0.924-4.907,1.854c-0.465,0.93-2.79,4.882-3.953,6.045
					c-1.162,1.162-3.487,2.79-1.395,3.72c2.092,0.93,5.813-3.255,5.813-3.255l2.092-1.163c0,0,0.311,2.639-0.678,5.488
					c-1.366,3.931-2.947,8.714-2.742,9.212c1.029,2.498,2.645,0.735,2.645,0.735l3.125-7.291l0.549-0.35c0,0-0.629,8.33-0.632,8.367
					c-0.115,1.526,1.234,3.314,2.408,1.749l2.79-8.835v7.947c0,1.221,1.134,2.236,2.312,1.911c0.086-0.024,0.168-0.054,0.246-0.093
					c0.93-0.465,1.253-10.164,1.253-10.164l1.945,7.025c0.21,0.76,1.032,1.249,1.761,0.948c0.185-0.076,0.331-0.193,0.389-0.367
					c0.233-0.697-0.465-11.857-0.465-11.857l-0.465-11.625l0.698-3.952L392.296,178.866z"/>
				<g>
					<path style="fill:#FFFFFF;stroke:#263238;stroke-linecap:round;stroke-linejoin:round;stroke-miterlimit:10;" d="
						M396.695,100.95c0,0-3.72,7.905-3.255,10.695c0.465,2.79,11.299,29.462,11.299,29.462l-13.469,38.816l10.695,2.557
						c0,0,18.273-27.161,20.212-33.003c1.627-4.901,1.395-8.835,1.395-10.23c0-1.395-4.324-33.182-6.882-38.762
						s-5.813-9.067-5.813-9.067"/>
					<path style="fill:none;stroke:#263238;stroke-linecap:round;stroke-linejoin:round;stroke-miterlimit:10;" d="M406.367,140.177
						c0,0,4.185-5.813,6.742-9.533"/>
					
						<line style="fill:none;stroke:#263238;stroke-linecap:round;stroke-linejoin:round;stroke-miterlimit:10;" x1="412.412" y1="128.552" x2="407.297" y2="135.062"/>
					
						<line style="fill:#FFFFFF;stroke:#263238;stroke-linecap:round;stroke-linejoin:round;stroke-miterlimit:10;" x1="392.201" y1="176.202" x2="403.593" y2="178.992"/>
				</g>
			</g>
			<g>
				<path style="fill:#FFFFFF;stroke:#263238;stroke-linecap:round;stroke-linejoin:round;stroke-miterlimit:10;" d="
					M317.733,110.512c-0.785,0.668-1.831,1.715-2.877,3.226c-2.092,3.022-0.93,9.533,0.465,11.625
					c1.395,2.093,6.975,3.488,6.975,3.488h45.147l0.905-7.631c-0.96-0.017-1.645-0.041-1.645-0.041s-8.138-2.557-13.95-4.185
					c-5.813-1.628-17.255-6.459-20.692-7.207c-3.178-0.692-6.044-0.569-8.007-0.309"/>
				<path style="fill:#FFFFFF;stroke:#263238;stroke-linecap:round;stroke-linejoin:round;stroke-miterlimit:10;" d="M375.06,128.85
					l-0.231-0.289c0,0,4.694-0.427,5.335-0.64c0.64-0.213,2.56-0.427,2.56-0.427l6.777,1.355h6.729l-0.698-1.162l-6.045-3.72
					c0,0-5.184-2.592-5.185-2.592c-5.391-2.695-11.867,0.63-17.6-0.198c0,0,0.952,0.137,1.084,0.138l-0.905,7.534H375.06z"/>
				
					<line style="fill:#FFFFFF;stroke:#263238;stroke-linecap:round;stroke-linejoin:round;stroke-miterlimit:10;" x1="384.432" y1="123.654" x2="395.1" y2="128.348"/>
				
					<line style="fill:none;stroke:#263238;stroke-linecap:round;stroke-linejoin:round;stroke-miterlimit:10;" x1="363.734" y1="120.88" x2="363.448" y2="128.618"/>
			</g>
			<g>
				<path style="fill:#263238;stroke:#263238;stroke-linecap:round;stroke-linejoin:round;stroke-miterlimit:10;" d="
					M354.846,65.145c0,0-3.023-3.952-3.255-8.835c-0.233-4.882,2.092-5.813,2.092-5.813s-3.488-5.58,4.185-8.835
					c7.672-3.255,19.297-5.115,25.807-1.627c6.51,3.487,8.835,11.625,8.603,17.205c-0.233,5.58-3.488,12.09-3.488,12.09
					l-5.115,6.278c0,0-3.255,1.162-3.952-0.233c-0.698-1.395-4.65-5.58-6.742-5.58s-7.44,0-10.23-1.163
					C359.961,67.47,354.846,65.145,354.846,65.145z"/>
				<g>
					<path style="fill:#FFFFFF;stroke:#263238;stroke-linecap:round;stroke-linejoin:round;stroke-miterlimit:10;" d="
						M354.381,58.17c0,0-0.232,14.182-0.232,17.205s0,6.045,1.395,9.068c1.395,3.022,2.557,11.16,8.835,11.625
						c6.277,0.465,15.345-6.045,16.972-9.532c1.628-3.488,2.557-9.533,2.557-9.533s5.58-3.72,6.51-8.137
						c0.93-4.417-0.93-6.51-2.092-4.417s-2.79,7.44-3.487,7.905c-0.698,0.465-1.628-2.79-1.628-2.79s-3.487,1.395-3.952,0
						c-0.465-1.395,1.86-8.137,1.86-8.137s-7.672,2.092-9.3,2.092s-5.115-1.162-5.115-1.162l6.742,4.185c0,0-4.65,2.092-9.3,0.698
						c-4.65-1.395-8.137-9.068-8.137-9.068H354.381z"/>
					<path style="fill:#FFFFFF;stroke:#263238;stroke-linecap:round;stroke-linejoin:round;stroke-miterlimit:10;" d="
						M361.356,73.05v2.79c0,0-3.022,7.905-2.557,9.3c0.465,1.395,4.65,0.698,5.58,0.233"/>
					<path style="fill:#FFFFFF;stroke:#263238;stroke-linecap:round;stroke-linejoin:round;stroke-miterlimit:10;" d="
						M360.891,87.465c0,0,4.418,2.79,9.068,0.232"/>
					<path style="fill:#FFFFFF;stroke:#263238;stroke-linecap:round;stroke-linejoin:round;stroke-miterlimit:10;" d="
						M367.633,77.003c0,0,3.488,2.79,8.138,1.162"/>
					<path style="fill:#FFFFFF;stroke:#263238;stroke-linecap:round;stroke-linejoin:round;stroke-miterlimit:10;" d="
						M367.866,72.818c0,0,5.115-1.86,8.37,1.627"/>
					<path style="fill:#FFFFFF;stroke:#263238;stroke-linecap:round;stroke-linejoin:round;stroke-miterlimit:10;" d="
						M356.008,73.283c0,0,0.93,2.092,5.347,2.558"/>
					<path style="fill:#FFFFFF;stroke:#263238;stroke-linecap:round;stroke-linejoin:round;stroke-miterlimit:10;" d="
						M360.426,70.958c0,0-1.628-2.79-3.952-1.86"/>
				</g>
			</g>
			<polygon style="fill:#92E3A9;stroke:#263238;stroke-linecap:round;stroke-linejoin:round;stroke-miterlimit:10;" points="
				364.587,111.491 357.973,170.597 366.508,182.546 374.403,170.597 			"/>
		</g>
	</g>
</g>
<g id="Character">
	<g>
		<g>
			<path style="fill:#263238;stroke:#263238;stroke-linecap:round;stroke-linejoin:round;stroke-miterlimit:10;" d="M108.09,255.482
				v9.727c0,0,99.579-4.073,220.415-6.089L108.09,255.482z"/>
			
				<rect x="102.599" y="198.764" style="fill:#FFFFFF;stroke:#263238;stroke-linecap:round;stroke-linejoin:round;stroke-miterlimit:10;" width="225.906" height="60.355"/>
			<g>
				<g>
					<path style="fill:#263238;" d="M276.679,214.318c0.99,0,1.414,0.585,1.414,1.54v0.756c0,0.999-0.469,1.521-1.468,1.521h-0.621
						v2.485h-0.702v-6.302H276.679z M276.625,217.505c0.522,0,0.774-0.243,0.774-0.846v-0.837c0-0.576-0.207-0.864-0.721-0.864
						h-0.675v2.548H276.625z"/>
					<path style="fill:#263238;" d="M280.045,214.318c0.99,0,1.404,0.504,1.404,1.44v0.513c0,0.693-0.243,1.125-0.783,1.296
						c0.576,0.171,0.792,0.639,0.792,1.314v0.981c0,0.279,0.009,0.54,0.126,0.756h-0.711c-0.081-0.18-0.117-0.342-0.117-0.765v-0.99
						c0-0.712-0.333-0.937-0.918-0.937h-0.495v2.692h-0.702v-6.302H280.045z M279.865,217.289c0.558,0,0.891-0.18,0.891-0.864
						v-0.603c0-0.567-0.207-0.864-0.729-0.864h-0.684v2.332H279.865z"/>
					<path style="fill:#263238;" d="M282.132,215.839c0-0.963,0.478-1.585,1.44-1.585c0.973,0,1.45,0.621,1.45,1.585v3.259
						c0,0.954-0.478,1.585-1.45,1.585c-0.963,0-1.44-0.63-1.44-1.585V215.839z M282.825,219.134c0,0.576,0.243,0.909,0.747,0.909
						c0.514,0,0.748-0.333,0.748-0.909v-3.331c0-0.567-0.234-0.909-0.748-0.909c-0.504,0-0.747,0.342-0.747,0.909V219.134z"/>
					<path style="fill:#263238;" d="M288.469,215.839v0.54h-0.666v-0.576c0-0.567-0.225-0.909-0.738-0.909
						c-0.504,0-0.738,0.342-0.738,0.909v3.331c0,0.567,0.234,0.909,0.738,0.909c0.514,0,0.738-0.342,0.738-0.909v-1.26h-0.648v-0.63
						h1.314v1.854c0,0.954-0.45,1.585-1.422,1.585c-0.964,0-1.414-0.63-1.414-1.585v-3.259c0-0.955,0.45-1.585,1.414-1.585
						C288.019,214.255,288.469,214.885,288.469,215.839z"/>
					<path style="fill:#263238;" d="M290.539,214.318c0.99,0,1.404,0.504,1.404,1.44v0.513c0,0.693-0.243,1.125-0.783,1.296
						c0.576,0.171,0.792,0.639,0.792,1.314v0.981c0,0.279,0.009,0.54,0.126,0.756h-0.711c-0.081-0.18-0.117-0.342-0.117-0.765v-0.99
						c0-0.712-0.333-0.937-0.918-0.937h-0.495v2.692h-0.702v-6.302H290.539z M290.359,217.289c0.558,0,0.891-0.18,0.891-0.864
						v-0.603c0-0.567-0.207-0.864-0.729-0.864h-0.684v2.332H290.359z"/>
					<path style="fill:#263238;" d="M294.922,217.108v0.63h-1.539v2.242h1.891v0.639h-2.593v-6.302h2.593v0.639h-1.891v2.151
						H294.922z"/>
					<path style="fill:#263238;" d="M298.647,215.83v0.171h-0.666v-0.207c0-0.567-0.216-0.9-0.721-0.9
						c-0.504,0-0.72,0.333-0.72,0.891c0,1.413,2.115,1.548,2.115,3.322c0,0.955-0.459,1.576-1.422,1.576
						c-0.964,0-1.414-0.621-1.414-1.576v-0.36h0.657v0.396c0,0.567,0.234,0.9,0.738,0.9c0.505,0,0.738-0.333,0.738-0.9
						c0-1.404-2.106-1.54-2.106-3.313c0-0.972,0.45-1.575,1.396-1.575C298.197,214.255,298.647,214.876,298.647,215.83z"/>
					<path style="fill:#263238;" d="M301.996,215.83v0.171h-0.666v-0.207c0-0.567-0.216-0.9-0.721-0.9
						c-0.504,0-0.72,0.333-0.72,0.891c0,1.413,2.115,1.548,2.115,3.322c0,0.955-0.459,1.576-1.422,1.576
						c-0.964,0-1.414-0.621-1.414-1.576v-0.36h0.657v0.396c0,0.567,0.234,0.9,0.738,0.9c0.504,0,0.738-0.333,0.738-0.9
						c0-1.404-2.106-1.54-2.106-3.313c0-0.972,0.45-1.575,1.396-1.575C301.546,214.255,301.996,214.876,301.996,215.83z"/>
				</g>
				<g>
					<path style="fill:#263238;" d="M231.529,214.318c0.98,0,1.431,0.594,1.431,1.566v3.178c0,0.963-0.45,1.558-1.431,1.558h-1.477
						v-6.302H231.529z M231.519,219.98c0.505,0,0.748-0.315,0.748-0.891v-3.241c0-0.576-0.243-0.891-0.757-0.891h-0.756v5.023
						H231.519z"/>
					<path style="fill:#263238;" d="M235.858,217.108v0.63h-1.539v2.242h1.891v0.639h-2.593v-6.302h2.593v0.639h-1.891v2.151
						H235.858z"/>
					<path style="fill:#263238;" d="M237.567,219.35l-0.243,1.27h-0.648l1.207-6.302h1.017l1.207,6.302h-0.702l-0.243-1.27H237.567z
						 M237.657,218.747h1.404l-0.711-3.637L237.657,218.747z"/>
					<path style="fill:#263238;" d="M242.131,214.318c0.98,0,1.431,0.594,1.431,1.566v3.178c0,0.963-0.45,1.558-1.431,1.558h-1.477
						v-6.302H242.131z M242.121,219.98c0.505,0,0.748-0.315,0.748-0.891v-3.241c0-0.576-0.243-0.891-0.757-0.891h-0.756v5.023
						H242.121z"/>
					<path style="fill:#263238;" d="M244.219,220.62v-6.302h0.702v5.663h1.801v0.639H244.219z"/>
					<path style="fill:#263238;" d="M247.953,214.318v6.302h-0.702v-6.302H247.953z"/>
					<path style="fill:#263238;" d="M249.294,220.62h-0.63v-6.302h0.891l1.459,4.555v-4.555h0.621v6.302h-0.73l-1.611-5.096V220.62z
						"/>
					<path style="fill:#263238;" d="M254.596,217.108v0.63h-1.539v2.242h1.891v0.639h-2.593v-6.302h2.593v0.639h-1.891v2.151
						H254.596z"/>
				</g>
				<g>
					<g>
						
							<line style="fill:none;stroke:#263238;stroke-linecap:round;stroke-linejoin:round;stroke-miterlimit:10;" x1="190.113" y1="221.518" x2="203.267" y2="221.518"/>
						
							<line style="fill:none;stroke:#263238;stroke-linecap:round;stroke-linejoin:round;stroke-miterlimit:10;" x1="150.652" y1="221.518" x2="185.378" y2="221.518"/>
						
							<line style="fill:none;stroke:#263238;stroke-linecap:round;stroke-linejoin:round;stroke-miterlimit:10;" x1="113.792" y1="221.518" x2="145.391" y2="221.518"/>
						
							<line style="fill:none;stroke:#263238;stroke-linecap:round;stroke-linejoin:round;stroke-miterlimit:10;" x1="170.646" y1="236.487" x2="180.704" y2="236.487"/>
						
							<line style="fill:none;stroke:#263238;stroke-linecap:round;stroke-linejoin:round;stroke-miterlimit:10;" x1="144.865" y1="236.487" x2="162.227" y2="236.487"/>
						
							<line style="fill:none;stroke:#263238;stroke-linecap:round;stroke-linejoin:round;stroke-miterlimit:10;" x1="132.237" y1="236.487" x2="139.603" y2="236.487"/>
						
							<line style="fill:none;stroke:#263238;stroke-linecap:round;stroke-linejoin:round;stroke-miterlimit:10;" x1="113.792" y1="236.487" x2="128.028" y2="236.487"/>
					</g>
					<path style="fill:#FFFFFF;stroke:#263238;stroke-linecap:round;stroke-linejoin:round;stroke-miterlimit:10;" d="
						M320.14,233.69c0,1.31-0.53,2.49-1.38,3.34c-0.86,0.85-2.04,1.38-3.34,1.38h-49.55c-2.61,0-4.73-2.11-4.73-4.72
						c0-1.31,0.53-2.49,1.39-3.34c0.85-0.86,2.03-1.39,3.34-1.39h49.55C318.03,228.96,320.14,231.08,320.14,233.69z"/>
					<path style="fill:#FFFFFF;stroke:#263238;stroke-linecap:round;stroke-linejoin:round;stroke-miterlimit:10;" d="
						M251.755,238.412h-19.551c-2.609,0-4.724-2.115-4.724-4.724l0,0c0-2.609,2.115-4.724,4.724-4.724h19.551
						c2.609,0,4.724,2.115,4.724,4.724l0,0C256.479,236.297,254.364,238.412,251.755,238.412z"/>
				</g>
			</g>
		</g>
		<g>
			<path style="fill:#FFFFFF;stroke:#263238;stroke-linecap:round;stroke-linejoin:round;stroke-miterlimit:10;" d="
				M122.519,268.988c0,0,3.342-8.689,4.01-9.581c0.668-0.891,1.782-3.119,3.788-3.119c2.005,0,5.57,0.223,7.13-0.446
				c1.56-0.668,3.565-0.668,3.119,0.668c-0.446,1.337-3.119,1.782-3.119,1.782l11.586,0.891c0,0-3.342,3.119-4.902,3.788
				c-1.56,0.668-4.902,1.337-4.902,1.337s-2.674,1.783-4.456,2.228c-1.782,0.446-4.456,0.668-4.456,0.668l-2.451,4.456
				L122.519,268.988z"/>
			
				<line style="fill:none;stroke:#263238;stroke-linecap:round;stroke-linejoin:round;stroke-miterlimit:10;" x1="137.447" y1="258.294" x2="132.322" y2="259.631"/>
		</g>
		<polygon style="fill:#FFFFFF;stroke:#263238;stroke-linecap:round;stroke-linejoin:round;stroke-miterlimit:10;" points="
			94.891,230.444 91.104,236.905 93.332,242.029 99.57,237.351 102.689,235.122 102.689,221.755 		"/>
		<path style="fill:#FFFFFF;stroke:#263238;stroke-linecap:round;stroke-linejoin:round;stroke-miterlimit:10;" d="M94,234.008
			c0,0,1.782-9.135,2.674-10.249c0.891-1.114,4.456-3.788,5.57-4.01c1.114-0.223,2.674,0.446,1.782,1.782
			c-0.891,1.337-3.788,3.342-3.788,3.342s1.56,4.456,0.446,6.907c-1.114,2.451-3.565,3.565-3.565,3.565"/>
		<polygon style="fill:#92E3A9;stroke:#263238;stroke-linecap:round;stroke-linejoin:round;stroke-miterlimit:10;" points="
			91.327,235.122 95.114,244.703 75.73,259.408 71.497,244.257 		"/>
		<g>
			<path style="fill:#FFFFFF;stroke:#263238;stroke-linecap:round;stroke-linejoin:round;stroke-miterlimit:10;" d="M82.5,395.833
				l0.75,9.5c0,0-5,10.5-4.5,19.75s1.5,36,1.5,37.5s-2.5,3.25-0.75,9.5c0.486,1.736,4.75,0.5,9,3.25s9.5,4.5,12.75,4.5s5,0,5-1.5
				s-4.75-3.5-6.75-5.5s-8.25-10.25-8.75-11.25s1.75-15.75,3.25-21.5s5.75-19.5,7.5-29.25s2.5-17.75,2.5-17.75L82.5,395.833z"/>
			<path style="fill:#263238;stroke:#263238;stroke-linecap:round;stroke-linejoin:round;stroke-miterlimit:10;" d="M79.5,472.083
				l0.5,6.75h3.5l1.5-5.5C85,473.333,80.75,471.833,79.5,472.083z"/>
			<path style="fill:#263238;stroke:#263238;stroke-linecap:round;stroke-linejoin:round;stroke-miterlimit:10;" d="M101.25,479.833
				c3.233-0.327,5,0,5-1.5s-4.75-3.5-6.75-5.5c-1.557-1.557-5.679-6.889-7.67-9.652c-0.95,0.707-2.156,1.307-3.58,1.402
				c-3.75,0.25-8-2-8-2c0,1.5-2.5,3.25-0.75,9.5c0.486,1.736,4.892,1.426,8.324,5.544
				C91.064,481.516,100.765,479.882,101.25,479.833z"/>
		</g>
		<g>
			<path style="fill:#FFFFFF;stroke:#263238;stroke-linecap:round;stroke-linejoin:round;stroke-miterlimit:10;" d="M53.25,388.583
				l0.5,14c0,0-6.5,8.75-7.75,17.25s-5.5,41.75-5.5,45s-2,13.75-1,14.5s12.5,0,12.5,0s0.5-1,0.5-3.5s-2-10.75-1.5-12.75
				s2.25-8.25,2.25-8.25s7.75-20.25,11-26.5s6-15.25,7.75-20.75s3.25-13.25,3.25-13.25L53.25,388.583z"/>
			<path style="fill:#263238;stroke:#263238;stroke-linecap:round;stroke-linejoin:round;stroke-miterlimit:10;" d="M50.944,463.461
				c-3.473-4.88-9.135-1.903-10.249-1.246c-0.124,1.287-0.195,2.203-0.195,2.619c0,3.25-2,13.75-1,14.5s12.5,0,12.5,0s0.5-1,0.5-3.5
				C52.5,473.466,50.71,465.949,50.944,463.461z"/>
			<path style="fill:#8C8C8C;stroke:#263238;stroke-linecap:round;stroke-linejoin:round;stroke-miterlimit:10;" d="M52,479.333
				c-0.5-1.5-4-7.5-4-7.5l-6.5,0.25c-2.25,2.5-2,7.25-2,7.25C40.5,480.083,52,479.333,52,479.333z"/>
			<path style="fill:#263238;stroke:#263238;stroke-linecap:round;stroke-linejoin:round;stroke-miterlimit:10;" d="M48,471.833
				c0,0-2.25-2-4-1.25s-2.5,1.5-2.5,1.5l0.25,7.5h4.5L48,471.833z"/>
		</g>
		<path style="fill:#263238;stroke:#263238;stroke-linecap:round;stroke-linejoin:round;stroke-miterlimit:10;" d="M47.75,338.833
			c0,0-2,5-2.25,11.5s1.5,38.5,1.5,38.5s12.5,8.5,33.5,9.25s30.75-5,30.75-5s-0.5-38.5-3-47.75s-7-13-7-13s-10,3-25.25,2.75
			s-25.75-3-25.75-3L47.75,338.833z"/>
		<g>
			<g>
				<path style="fill:#92E3A9;stroke:#263238;stroke-linecap:round;stroke-linejoin:round;stroke-miterlimit:10;" d="
					M54.341,261.859c0,0-6.238,11.586-7.13,20.052c-0.891,8.466,7.352,34.311,7.352,35.203s-8.689,23.171-8.689,23.171
					s10.026,4.456,21.166,6.907c11.14,2.451,22.503,0.891,24.731,0.223l2.896-8.689l1.114,7.353c0,0,0,0.223,3.565-0.668
					c3.565-0.891,8.021-4.679,8.021-4.679s-5.793-13.591-8.689-17.379c-2.896-3.788-6.461-12.477-6.461-12.477l1.337-11.14
					c0,0,10.026,8.244,10.917,8.466c0.891,0.223,14.705-16.042,17.601-20.72s7.575-16.71,7.575-16.71l-6.684-3.342l-2.674,2.674
					l-15.819,17.156c0,0-9.58-10.917-14.259-12.7c-4.679-1.782-13.591-4.456-13.591-4.456l-18.047-4.233l1.337-3.788
					C59.912,262.082,59.02,259.408,54.341,261.859z"/>
			</g>
			<polygon style="fill:#263238;stroke:#263238;stroke-linecap:round;stroke-linejoin:round;stroke-miterlimit:10;" points="
				93.555,299.735 83.5,293.833 92.661,304.902 			"/>
			<path style="fill:none;stroke:#263238;stroke-linecap:round;stroke-linejoin:round;stroke-miterlimit:10;" d="M72.434,313.526
				c0.993,1.153,2.02,2.191,3.069,3.058"/>
			<path style="fill:none;stroke:#263238;stroke-linecap:round;stroke-linejoin:round;stroke-miterlimit:10;" d="M60.171,291.76
				c0,0,4.296,11.08,10.219,19.181"/>
			<path style="fill:none;stroke:#263238;stroke-linecap:round;stroke-linejoin:round;stroke-miterlimit:10;" d="M64.916,308.553
				c0,0,2.92,5.111,8.396,10.952"/>
		</g>
		<g>
			<g>
				<path style="fill:#FFFFFF;stroke:#263238;stroke-linecap:round;stroke-linejoin:round;stroke-miterlimit:10;" d="
					M83.306,226.879c0,0,1.114,2.005,2.005,5.57c0.891,3.565,4.011,5.347,5.125,5.124c1.114-0.223,1.114,2.451,0.446,3.788
					c-0.668,1.337-1.782,2.451-1.782,2.451s-0.223,5.347-0.891,9.358c-0.668,4.01-0.891,7.13-2.451,7.13c-1.56,0-8.021,0-8.021,0
					s-0.668,3.565-0.891,6.461c-0.223,2.896-0.223,3.342-0.223,3.342l-18.047-4.233l2.005-6.238c0,0-11.363-5.124-5.793-14.482
					C60.357,235.791,73.503,223.982,83.306,226.879z"/>
				<polygon style="fill:#263238;stroke:#263238;stroke-linecap:round;stroke-linejoin:round;stroke-miterlimit:10;" points="
					77.736,260.299 74.043,260 76.963,265.111 				"/>
				<path style="fill:none;stroke:#263238;stroke-linecap:round;stroke-linejoin:round;stroke-miterlimit:10;" d="M88.653,248.713
					c0,0-1.782,1.337-4.456,0.223"/>
				<path style="fill:none;stroke:#263238;stroke-linecap:round;stroke-linejoin:round;stroke-miterlimit:10;" d="M81.746,234.9
					c0,0,0.446-4.233,2.674-4.01"/>
				<path style="fill:#263238;" d="M85.274,236.667c0.376,1.172,0.349,2.228-0.062,2.36c-0.41,0.132-1.047-0.712-1.423-1.883
					c-0.376-1.172-0.348-2.228,0.062-2.36C84.26,234.652,84.898,235.495,85.274,236.667z"/>
			</g>
			<g>
				<path style="fill:#263238;stroke:#263238;stroke-linecap:round;stroke-linejoin:round;stroke-miterlimit:10;" d="
					M83.311,220.193c0.026,0.034,0.052,0.067,0.078,0.101c2.364,3.066,1.959,6.486,0.14,9.704
					c-3.704,6.553-15.017,12.642-15.017,18.056c0,5.413,5.698,5.128,5.698,5.128s2.279,4.843-3.419,9.117
					c-5.698,4.274-17.379,5.413-24.787-2.279c-2.161-2.244-3.508-4.974-4.332-7.717c-2.255-7.502-2.575-15.847,0.738-22.647
					c2.777-5.699,5.979-10.318,11.793-13.181c4.557-2.244,11.761-2.8,16.845-2.509c2.464,0.141,4.956,0.64,7.181,1.744
					C80.084,216.632,82.032,218.558,83.311,220.193z"/>
				<g>
					<path style="fill:none;stroke:#757575;stroke-linecap:round;stroke-linejoin:round;stroke-miterlimit:10;" d="M67.73,257.781
						c1.861-0.312,3.211-0.897,3.211-0.897"/>
					<path style="fill:none;stroke:#757575;stroke-linecap:round;stroke-linejoin:round;stroke-miterlimit:10;" d="M77.46,232.779
						c-1.347,1.958-3.2,4.004-5.734,5.778c-7.855,5.498-16.495,11.258-12.567,16.495c1.553,2.071,3.72,2.79,5.773,2.904"/>
					<path style="fill:none;stroke:#757575;stroke-linecap:round;stroke-linejoin:round;stroke-miterlimit:10;" d="M80.89,224.942
						c0,0-0.306,1.898-1.51,4.479"/>
					<path style="fill:none;stroke:#757575;stroke-linecap:round;stroke-linejoin:round;stroke-miterlimit:10;" d="M62.145,240.351
						c-1.275,1.769-2.885,3.85-4.819,6.061c-5.498,6.284-4.713,19.113,7.593,18.066"/>
					<path style="fill:none;stroke:#757575;stroke-linecap:round;stroke-linejoin:round;stroke-miterlimit:10;" d="M65.704,234.891
						c0,0-0.58,1.054-1.716,2.785"/>
				</g>
			</g>
		</g>
	</g>
</g>
<g id="Plant">
	<g>
		<path style="fill:#263238;" d="M387.53,359.457c2.618,1.143,9.022,0.999,9.027,0.999c0.066-0.002-1.377-4.192-1.498-4.446
			c-1.405-2.94-5.849-7.793-9.464-7.304c-2.604,0.352-4.053,2.959-3.465,5.411C382.731,356.622,385.3,358.482,387.53,359.457z"/>
		<path style="fill:#263238;" d="M471.419,337.659c-3.627-0.391-7.938,4.58-9.264,7.557c-0.114,0.258-1.443,4.486-1.377,4.485
			c0,0,0.062-0.001,0.077-0.001c-0.687,0.779-1.414,1.623-2.19,2.561c-1.419,1.743-3.006,3.725-4.588,6
			c-1.587,2.269-3.247,4.778-4.758,7.579c-1.518,2.806-2.97,5.835-4.064,9.149c-0.013,0.037-0.02,0.078-0.033,0.116
			c0.019-1.069-0.028-4.059-0.058-4.288c-0.419-3.231-3.126-9.228-6.715-9.891c-2.584-0.477-4.773,1.547-4.98,4.061
			c-0.21,2.567,1.651,5.136,3.466,6.757c2.047,1.828,7.728,3.598,8.18,3.739c-1.013,3.166-1.794,6.497-2.4,9.911
			c-0.348,1.952-0.638,3.929-0.904,5.915c-0.013-0.925-0.032-1.751-0.048-1.867c-0.419-3.231-3.127-9.227-6.715-9.891
			c-2.585-0.478-4.774,1.547-4.979,4.061c-0.211,2.567,1.651,5.136,3.465,6.757c1.842,1.645,6.655,3.252,7.934,3.66
			c-0.094,0.763-0.196,1.524-0.287,2.287c-0.438,3.661-0.858,7.317-1.381,10.89c-0.183,1.259-0.41,2.492-0.633,3.727
			c-0.013-0.821-0.031-1.512-0.044-1.617c-0.419-3.231-3.127-9.228-6.714-9.891c-2.585-0.477-4.775,1.547-4.981,4.061
			c-0.211,2.566,1.651,5.136,3.466,6.757c1.757,1.57,6.187,3.093,7.705,3.585c-0.266,1.258-0.531,2.518-0.845,3.725
			c-0.234,0.819-0.402,1.624-0.682,2.434c-0.261,0.807-0.519,1.607-0.774,2.398c-0.549,1.507-1.104,3.064-1.676,4.52
			c-0.39,1.016-0.781,1.977-1.171,2.945c0.197-1.251,0.532-3.709,0.537-3.917c0.05-2.164-0.719-5.682-2.248-8.156
			c0.009-0.32-0.009-0.638-0.06-0.955c-0.4-2.49-2.739-4.339-5.28-3.663c-3.525,0.939-5.762,7.127-5.928,10.38
			c-0.01,0.192,0.116,2.286,0.217,3.607c-0.178-0.767-0.341-1.513-0.533-2.301c-0.37-1.559-0.785-3.104-1.224-4.769
			c-0.241-0.796-0.484-1.6-0.73-2.412c-0.226-0.81-0.569-1.638-0.852-2.466c-0.697-1.906-1.497-3.805-2.344-5.699
			c1.365-0.327,6.194-1.558,8.133-3.047c1.931-1.481,3.978-3.905,3.96-6.48c-0.018-2.522-2.05-4.705-4.663-4.421
			c-3.627,0.394-6.775,6.172-7.434,9.363c-0.041,0.199-0.256,2.541-0.349,3.831c-0.518-1.134-1.03-2.27-1.592-3.401
			c-1.621-3.265-3.363-6.52-5.087-9.774c-0.529-0.997-1.043-1.995-1.563-2.994c0.487-0.111,6.259-1.451,8.431-3.117
			c1.93-1.481,3.978-3.905,3.96-6.48c-0.018-2.521-2.05-4.704-4.663-4.42c-3.627,0.394-6.775,6.172-7.434,9.362
			c-0.049,0.241-0.354,3.612-0.389,4.472c-1.142-2.199-2.26-4.401-3.275-6.617c-1.403-3.055-2.611-6.13-3.561-9.196
			c0.227-0.052,6.257-1.422,8.482-3.129c1.931-1.481,3.978-3.905,3.96-6.48c-0.018-2.522-2.05-4.704-4.663-4.42
			c-3.627,0.394-6.775,6.172-7.433,9.363c-0.052,0.251-0.377,3.878-0.389,4.539c-0.056-0.182-0.135-0.365-0.189-0.547
			c-0.972-3.287-1.502-6.592-1.846-9.711c-0.204-1.811-0.296-3.555-0.349-5.253c1.149-0.14,6.395-0.839,8.566-2.154
			c2.082-1.261,4.383-3.445,4.648-6.006c0.259-2.509-1.521-4.901-4.149-4.906c-3.649-0.007-7.412,5.391-8.417,8.49
			c-0.055,0.169-0.421,1.943-0.668,3.24c-0.012-0.767-0.039-1.558-0.036-2.293c0.005-2.759,0.179-5.285,0.352-7.521
			c0.108-1.271,0.232-2.418,0.359-3.489c1.056-0.726,5.275-3.705,6.573-5.834c1.267-2.078,2.303-5.076,1.357-7.472
			c-0.926-2.346-3.609-3.649-5.943-2.442c-3.241,1.675-4.094,8.2-3.558,11.414c0.047,0.277,1.271,4.537,1.327,4.5
			c0,0,0.051-0.035,0.063-0.044c-0.143,1.029-0.283,2.134-0.413,3.344c-0.222,2.237-0.452,4.766-0.517,7.535
			c-0.072,2.768-0.073,5.777,0.213,8.946c0.282,3.177,0.741,6.505,1.657,9.872c0.01,0.038,0.026,0.077,0.037,0.114
			c-0.574-0.902-2.264-3.369-2.415-3.544c-2.132-2.464-7.698-5.971-11.057-4.546c-2.419,1.028-3.128,3.924-1.913,6.134
			c1.241,2.257,4.211,3.373,6.618,3.724c2.716,0.396,8.431-1.261,8.885-1.395c0.902,3.199,2.088,6.409,3.466,9.591
			c0.786,1.82,1.634,3.629,2.508,5.432c-0.521-0.763-0.993-1.442-1.069-1.531c-2.132-2.464-7.699-5.971-11.057-4.545
			c-2.42,1.027-3.128,3.923-1.914,6.134c1.24,2.257,4.211,3.374,6.618,3.724c2.444,0.357,7.344-0.959,8.637-1.324
			c0.342,0.688,0.676,1.379,1.022,2.066c1.655,3.296,3.32,6.577,4.856,9.845c0.542,1.151,1.032,2.305,1.528,3.458
			c-0.464-0.678-0.86-1.245-0.93-1.326c-2.132-2.463-7.699-5.971-11.057-4.545c-2.419,1.027-3.128,3.924-1.913,6.134
			c1.241,2.257,4.211,3.374,6.619,3.724c2.332,0.34,6.866-0.833,8.404-1.26c0.472,1.196,0.947,2.393,1.35,3.573
			c0.257,0.812,0.562,1.576,0.774,2.406c0.228,0.817,0.454,1.626,0.677,2.428c0.374,1.558,0.77,3.165,1.096,4.694
			c0.235,1.062,0.44,2.079,0.649,3.103c-0.526-1.153-1.603-3.387-1.714-3.564c-1.733-2.758-6.705-7.068-10.241-6.168
			c-2.547,0.649-3.686,3.405-2.82,5.773c0.884,2.419,3.65,3.972,5.977,4.684c2.562,0.783,8.235,0.068,8.943-0.027
			c0.34,1.695,0.655,3.346,0.926,4.91c0.415,2.354,0.756,4.525,1.044,6.509h-3.307v39.5h15.699v-39.5h-2.075
			c0.618-1.42,1.261-2.931,1.923-4.55c0.668-1.623,1.35-3.371,2.033-5.172c0.686,0.143,6.301,1.284,8.919,0.693
			c2.373-0.537,5.248-1.879,6.311-4.226c1.04-2.297,0.109-5.13-2.383-5.967c-3.458-1.162-8.737,2.766-10.671,5.388
			c-0.115,0.155-1.165,1.971-1.809,3.128c0.275-0.737,0.55-1.45,0.824-2.213c0.553-1.504,1.059-3.022,1.609-4.653
			c0.238-0.797,0.479-1.602,0.723-2.415c0.258-0.801,0.429-1.68,0.65-2.527c0.471-1.975,0.851-3.999,1.189-6.046
			c1.319,0.48,6.026,2.117,8.464,1.946c2.428-0.171,5.472-1.062,6.877-3.221c1.376-2.113,0.885-5.055-1.451-6.26
			c-3.243-1.672-9.056,1.411-11.365,3.709c-0.144,0.143-1.616,1.978-2.404,3.002c0.193-1.232,0.393-2.461,0.548-3.714
			c0.449-3.617,0.791-7.293,1.148-10.958c0.109-1.123,0.231-2.24,0.349-3.359c0.468,0.176,6.02,2.243,8.751,2.051
			c2.427-0.17,5.472-1.062,6.877-3.221c1.376-2.113,0.885-5.055-1.451-6.259c-3.243-1.673-9.056,1.41-11.365,3.708
			c-0.174,0.173-2.288,2.817-2.792,3.516c0.26-2.465,0.543-4.918,0.919-7.326c0.514-3.322,1.204-6.554,2.103-9.635
			c0.217,0.083,6.003,2.266,8.8,2.07c2.428-0.171,5.473-1.063,6.878-3.221c1.376-2.113,0.885-5.054-1.451-6.259
			c-3.243-1.672-9.055,1.411-11.365,3.709c-0.181,0.181-2.454,3.026-2.829,3.572c0.054-0.183,0.09-0.379,0.146-0.561
			c1.001-3.277,2.383-6.326,3.817-9.117c0.83-1.624,1.714-3.129,2.607-4.574c1.036,0.517,5.796,2.829,8.333,2.93
			c2.431,0.097,5.556-0.455,7.19-2.446c1.6-1.949,1.435-4.927-0.754-6.381c-3.04-2.018-9.156,0.408-11.704,2.438
			c-0.138,0.11-1.422,1.389-2.344,2.333c0.413-0.647,0.827-1.321,1.235-1.932c1.526-2.299,3.065-4.309,4.443-6.079
			c0.791-1,1.526-1.888,2.224-2.713c1.281-0.022,6.443-0.179,8.701-1.239c2.202-1.035,4.721-2.964,5.254-5.484
			C475.55,340.506,474.032,337.94,471.419,337.659z M431.254,435.118c-0.847,1.949-1.661,3.74-2.433,5.391h-5.477
			c-0.347-2.09-0.757-4.395-1.257-6.906c-0.338-1.722-0.734-3.556-1.158-5.435c0.427-0.169,2.846-1.148,4.989-2.346
			c1.867,2.022,6.652,4.389,7.272,4.69C432.539,432.113,431.89,433.664,431.254,435.118z"/>
		<path style="fill:#263238;" d="M452.305,360.865c0.056,0.035,1.165-4.256,1.204-4.535c0.449-3.227-0.58-9.726-3.865-11.313
			c-2.366-1.143-5.012,0.232-5.874,2.602c-0.881,2.42,0.235,5.389,1.558,7.432C446.879,357.45,452.301,360.862,452.305,360.865z"/>
	</g>
</g>
<g id="Floor">
	<g>
		
			<line style="fill:none;stroke:#263238;stroke-linecap:round;stroke-linejoin:round;stroke-miterlimit:10;" x1="473.682" y1="479.718" x2="486.359" y2="479.718"/>
		
			<line style="fill:none;stroke:#263238;stroke-linecap:round;stroke-linejoin:round;stroke-miterlimit:10;" x1="462.854" y1="479.718" x2="467.851" y2="479.718"/>
		
			<line style="fill:none;stroke:#263238;stroke-linecap:round;stroke-linejoin:round;stroke-miterlimit:10;" x1="21.359" y1="479.718" x2="459.244" y2="479.718"/>
	</g>
</g>
</svg>
