<?xml version="1.0" encoding="utf-8"?>
<!-- Generator: Adobe Illustrator 27.5.0, SVG Export Plug-In . SVG Version: 6.00 Build 0)  -->
<svg version="1.1" xmlns="http://www.w3.org/2000/svg" xmlns:xlink="http://www.w3.org/1999/xlink" x="0px" y="0px"
	 viewBox="0 0 500 500" style="enable-background:new 0 0 500 500;" xml:space="preserve">
<g id="Background_Simple">
	<g>
		<path style="fill:#92E3A9;" d="M467.605,251.913c-4.936,41.801-24.022,90.403-62.141,112.73
			c-57.595,33.742-52.774,85.638-165.193,108.199c-17.527,3.519-34.161,5-49.846,4.708c-8.432-0.156-16.593-0.836-24.465-1.995
			C94.512,465.119,46.43,415.455,28.79,355.505C5.575,276.66,51.928,225.042,82.652,193.941
			c30.724-31.1,53.226-128.004,163.567-151.052c16.824-3.507,34.029-5.296,51.229-4.867c39.259,0.963,82.08,13.855,111.71,40.761
			c2.225,2.022,4.388,4.118,6.497,6.278C456.838,127.332,474.338,194.925,467.605,251.913z"/>
		<path style="opacity:0.7;fill:#FFFFFF;" d="M467.605,251.913c-4.936,41.801-24.022,90.403-62.141,112.73
			c-57.595,33.742-52.774,85.638-165.193,108.199c-17.527,3.519-34.161,5-49.846,4.708c-8.432-0.156-16.593-0.836-24.465-1.995
			C94.512,465.119,46.43,415.455,28.79,355.505C5.575,276.66,51.928,225.042,82.652,193.941
			c30.724-31.1,53.226-128.004,163.567-151.052c16.824-3.507,34.029-5.296,51.229-4.867c39.259,0.963,82.08,13.855,111.71,40.761
			c2.225,2.022,4.388,4.118,6.497,6.278C456.838,127.332,474.338,194.925,467.605,251.913z"/>
	</g>
</g>
<g id="Floor_1_">
	
		<line style="fill:none;stroke:#263238;stroke-linecap:round;stroke-linejoin:round;stroke-miterlimit:10;" x1="24.72" y1="464.102" x2="476.1" y2="464.102"/>
</g>
<g id="Clouds">
	<g>
		<path style="fill:none;stroke:#B2B2B2;stroke-linecap:round;stroke-linejoin:round;stroke-miterlimit:10;" d="M349.128,73.404
			h38.098c0,0,3.656-10.967-2.924-14.988c-6.58-4.021-6.58,1.462-11.698-0.731c-4.228-1.812-5.019-5.251-6.202-8.897
			c-0.135-0.415-0.275-0.833-0.425-1.252c-0.418-1.163-0.952-2.245-1.58-3.243"/>
		<path style="fill:none;stroke:#B2B2B2;stroke-linecap:round;stroke-linejoin:round;stroke-miterlimit:10;" d="M359.924,39.54
			c-9.545-6.958-25.338-4.371-25.339,10.468c0,3.656-8.773,0-12.064,4.752c-3.29,4.752,0.366,7.677-4.021,9.139
			c-4.387,1.462-4.752-2.193-10.236-1.828c-5.483,0.366-4.752,5.483-6.58,6.946c-1.828,1.462-1.828,0.731-5.849,1.097
			c-4.021,0.366-4.752,3.29-4.752,3.29h51.294"/>
		<path style="fill:none;stroke:#B2B2B2;stroke-linecap:round;stroke-linejoin:round;stroke-miterlimit:10;" d="M369.726,69.404
			c0,0,1.992-6.156-2.897-10.682c-4.888-4.526-9.958-1.992-11.406,0c-1.448,1.992-1.448,5.794-3.802,6.156
			c-2.354,0.362-1.811-3.983-6.88-2.897c-5.07,1.086-3.078,6.156-5.432,7.242c-2.354,1.086-2.354-2.897-5.613-1.63
			c-3.259,1.268-3.078,3.621-3.078,3.621"/>
		<path style="fill:none;stroke:#B2B2B2;stroke-linecap:round;stroke-linejoin:round;stroke-miterlimit:10;" d="M343.722,57.104
			c0,0-4.032-3.225-9.273-0.806c-5.241,2.419-2.822,7.458-5.241,8.668c-2.419,1.21-3.629-0.202-6.652,1.21
			c-3.024,1.411-2.822,3.427-2.822,3.427"/>
	</g>
	<g>
		<path style="fill:none;stroke:#B2B2B2;stroke-linecap:round;stroke-linejoin:round;stroke-miterlimit:10;" d="M89.016,141.324
			c-0.697-0.357-1.514-0.715-2.907-0.623c-3.147,0.21-2.727,3.147-3.776,3.986c-1.049,0.839-1.049,0.42-3.357,0.629
			c-2.308,0.21-2.727,1.888-2.727,1.888h55.173c0,0,1.359-4.077-0.079-6.871"/>
		<path style="fill:none;stroke:#B2B2B2;stroke-linecap:round;stroke-linejoin:round;stroke-miterlimit:10;" d="M129.744,138.603
			c-3.776-2.308-3.776,0.839-6.713-0.42c-2.426-1.04-2.88-3.013-3.559-5.105c-0.077-0.238-0.158-0.478-0.244-0.718
			c-3.187-8.863-18.014-9.474-18.014,1.418c0,2.098-5.035,0-6.923,2.727c-1.888,2.727,0.21,4.406-2.308,5.245"/>
		<path style="fill:none;stroke:#B2B2B2;stroke-linecap:round;stroke-linejoin:round;stroke-miterlimit:10;" d="M121.38,144.909
			c0,0,1.143-3.533-1.662-6.13c-2.805-2.598-5.715-1.143-6.546,0c-0.831,1.143-0.831,3.325-2.182,3.533s-1.039-2.286-3.948-1.662
			c-2.909,0.623-1.766,3.533-3.117,4.156c-1.351,0.623-1.351-1.662-3.221-0.935c-1.87,0.727-1.766,2.078-1.766,2.078"/>
		<path style="fill:none;stroke:#B2B2B2;stroke-linecap:round;stroke-linejoin:round;stroke-miterlimit:10;" d="M106.457,137.85
			c0,0-2.314-1.851-5.321-0.463c-3.008,1.388-1.619,4.28-3.008,4.974s-2.082-0.116-3.817,0.694s-1.62,1.966-1.62,1.966"/>
	</g>
	<g>
		<path style="fill:none;stroke:#B2B2B2;stroke-linecap:round;stroke-linejoin:round;stroke-miterlimit:10;" d="M217.964,45.522
			c-0.697-0.356-1.514-0.715-2.907-0.623c-3.147,0.21-2.727,3.147-3.776,3.986c-1.049,0.839-1.049,0.42-3.356,0.629
			c-2.308,0.21-2.727,1.888-2.727,1.888h55.173c0,0,1.359-4.077-0.079-6.871"/>
		<path style="fill:none;stroke:#B2B2B2;stroke-linecap:round;stroke-linejoin:round;stroke-miterlimit:10;" d="M258.691,42.802
			c-3.776-2.308-3.776,0.839-6.713-0.42c-2.426-1.04-2.88-3.014-3.559-5.105c-0.077-0.238-0.158-0.478-0.244-0.718
			c-3.187-8.863-18.014-9.474-18.014,1.418c0,2.098-5.035,0-6.923,2.727c-1.888,2.727,0.21,4.406-2.308,5.245"/>
		<path style="fill:none;stroke:#B2B2B2;stroke-linecap:round;stroke-linejoin:round;stroke-miterlimit:10;" d="M250.327,49.108
			c0,0,1.143-3.533-1.662-6.13s-5.715-1.143-6.546,0c-0.831,1.143-0.831,3.325-2.182,3.533c-1.351,0.208-1.039-2.286-3.948-1.662
			c-2.909,0.623-1.766,3.533-3.117,4.156c-1.351,0.623-1.351-1.662-3.221-0.935c-1.87,0.727-1.766,2.078-1.766,2.078"/>
		<path style="fill:none;stroke:#B2B2B2;stroke-linecap:round;stroke-linejoin:round;stroke-miterlimit:10;" d="M235.404,42.049
			c0,0-2.314-1.851-5.321-0.463c-3.008,1.388-1.62,4.28-3.008,4.974s-2.082-0.116-3.817,0.694s-1.62,1.966-1.62,1.966"/>
	</g>
</g>
<g id="Building">
	<g>
		
			<rect x="217.3" y="97.09" style="fill:#ADADAD;stroke:#ADADAD;stroke-linecap:round;stroke-linejoin:round;stroke-miterlimit:10;" width="217.787" height="367.012"/>
		
			<rect x="309.688" y="97.09" style="fill:#FFFFFF;stroke:#ADADAD;stroke-linecap:round;stroke-linejoin:round;stroke-miterlimit:10;" width="125.399" height="367.012"/>
		
			<rect x="324.245" y="97.09" style="fill:#FFFFFF;stroke:#ADADAD;stroke-linecap:round;stroke-linejoin:round;stroke-miterlimit:10;" width="96.286" height="367.012"/>
		
			<rect x="309.688" y="97.09" style="fill:#ADADAD;stroke:#ADADAD;stroke-linecap:round;stroke-linejoin:round;stroke-miterlimit:10;" width="125.399" height="25.139"/>
		<g>
			
				<rect x="341.927" y="418.995" style="fill:#FFFFFF;stroke:#ADADAD;stroke-linecap:round;stroke-linejoin:round;stroke-miterlimit:10;" width="60.922" height="45.106"/>
			
				<rect x="372.388" y="418.995" style="fill:#FFFFFF;stroke:#ADADAD;stroke-linecap:round;stroke-linejoin:round;stroke-miterlimit:10;" width="30.461" height="45.106"/>
		</g>
		<g>
			<g>
				
					<rect x="231.771" y="138.271" style="fill:#FFFFFF;stroke:#ADADAD;stroke-linecap:round;stroke-linejoin:round;stroke-miterlimit:10;" width="27.648" height="25.107"/>
				
					<rect x="231.771" y="131.037" style="fill:#FFFFFF;stroke:#ADADAD;stroke-linecap:round;stroke-linejoin:round;stroke-miterlimit:10;" width="27.648" height="10.92"/>
			</g>
			<g>
				
					<rect x="271.294" y="138.271" style="fill:#FFFFFF;stroke:#ADADAD;stroke-linecap:round;stroke-linejoin:round;stroke-miterlimit:10;" width="27.648" height="25.107"/>
				
					<rect x="271.294" y="131.037" style="fill:#FFFFFF;stroke:#ADADAD;stroke-linecap:round;stroke-linejoin:round;stroke-miterlimit:10;" width="27.648" height="10.92"/>
			</g>
			<g>
				
					<rect x="231.771" y="186.47" style="fill:#FFFFFF;stroke:#ADADAD;stroke-linecap:round;stroke-linejoin:round;stroke-miterlimit:10;" width="27.648" height="25.107"/>
				
					<rect x="231.771" y="179.236" style="fill:#FFFFFF;stroke:#ADADAD;stroke-linecap:round;stroke-linejoin:round;stroke-miterlimit:10;" width="27.648" height="10.92"/>
			</g>
			<g>
				
					<rect x="271.294" y="186.47" style="fill:#FFFFFF;stroke:#ADADAD;stroke-linecap:round;stroke-linejoin:round;stroke-miterlimit:10;" width="27.648" height="25.107"/>
				
					<rect x="271.294" y="179.236" style="fill:#FFFFFF;stroke:#ADADAD;stroke-linecap:round;stroke-linejoin:round;stroke-miterlimit:10;" width="27.648" height="10.92"/>
			</g>
			<g>
				
					<rect x="231.771" y="234.669" style="fill:#FFFFFF;stroke:#ADADAD;stroke-linecap:round;stroke-linejoin:round;stroke-miterlimit:10;" width="27.648" height="25.107"/>
				
					<rect x="231.771" y="227.435" style="fill:#FFFFFF;stroke:#ADADAD;stroke-linecap:round;stroke-linejoin:round;stroke-miterlimit:10;" width="27.648" height="10.92"/>
			</g>
			<g>
				
					<rect x="271.294" y="234.669" style="fill:#FFFFFF;stroke:#ADADAD;stroke-linecap:round;stroke-linejoin:round;stroke-miterlimit:10;" width="27.648" height="25.107"/>
				
					<rect x="271.294" y="227.435" style="fill:#FFFFFF;stroke:#ADADAD;stroke-linecap:round;stroke-linejoin:round;stroke-miterlimit:10;" width="27.648" height="10.92"/>
			</g>
			<g>
				
					<rect x="231.771" y="282.867" style="fill:#FFFFFF;stroke:#ADADAD;stroke-linecap:round;stroke-linejoin:round;stroke-miterlimit:10;" width="27.648" height="25.107"/>
				
					<rect x="231.771" y="275.634" style="fill:#FFFFFF;stroke:#ADADAD;stroke-linecap:round;stroke-linejoin:round;stroke-miterlimit:10;" width="27.648" height="10.92"/>
			</g>
			<g>
				
					<rect x="271.294" y="282.867" style="fill:#FFFFFF;stroke:#ADADAD;stroke-linecap:round;stroke-linejoin:round;stroke-miterlimit:10;" width="27.648" height="25.107"/>
				
					<rect x="271.294" y="275.634" style="fill:#FFFFFF;stroke:#ADADAD;stroke-linecap:round;stroke-linejoin:round;stroke-miterlimit:10;" width="27.648" height="10.92"/>
			</g>
			<g>
				
					<rect x="231.771" y="331.066" style="fill:#FFFFFF;stroke:#ADADAD;stroke-linecap:round;stroke-linejoin:round;stroke-miterlimit:10;" width="27.648" height="25.107"/>
				
					<rect x="231.771" y="323.832" style="fill:#FFFFFF;stroke:#ADADAD;stroke-linecap:round;stroke-linejoin:round;stroke-miterlimit:10;" width="27.648" height="10.92"/>
			</g>
			<g>
				
					<rect x="271.294" y="331.066" style="fill:#FFFFFF;stroke:#ADADAD;stroke-linecap:round;stroke-linejoin:round;stroke-miterlimit:10;" width="27.648" height="25.107"/>
				
					<rect x="271.294" y="323.832" style="fill:#FFFFFF;stroke:#ADADAD;stroke-linecap:round;stroke-linejoin:round;stroke-miterlimit:10;" width="27.648" height="10.92"/>
			</g>
			<g>
				
					<rect x="231.771" y="379.265" style="fill:#FFFFFF;stroke:#ADADAD;stroke-linecap:round;stroke-linejoin:round;stroke-miterlimit:10;" width="27.648" height="25.107"/>
				
					<rect x="231.771" y="372.031" style="fill:#FFFFFF;stroke:#ADADAD;stroke-linecap:round;stroke-linejoin:round;stroke-miterlimit:10;" width="27.648" height="10.92"/>
			</g>
			<g>
				
					<rect x="271.294" y="379.265" style="fill:#FFFFFF;stroke:#ADADAD;stroke-linecap:round;stroke-linejoin:round;stroke-miterlimit:10;" width="27.648" height="25.107"/>
				
					<rect x="271.294" y="372.031" style="fill:#FFFFFF;stroke:#ADADAD;stroke-linecap:round;stroke-linejoin:round;stroke-miterlimit:10;" width="27.648" height="10.92"/>
			</g>
		</g>
		<g>
			<g>
				
					<rect x="319.814" y="138.271" style="fill:#FFFFFF;stroke:#ADADAD;stroke-linecap:round;stroke-linejoin:round;stroke-miterlimit:10;" width="27.648" height="25.107"/>
				
					<rect x="319.814" y="131.037" style="fill:#FFFFFF;stroke:#ADADAD;stroke-linecap:round;stroke-linejoin:round;stroke-miterlimit:10;" width="27.648" height="10.92"/>
			</g>
			<g>
				
					<rect x="359.337" y="138.271" style="fill:#FFFFFF;stroke:#ADADAD;stroke-linecap:round;stroke-linejoin:round;stroke-miterlimit:10;" width="27.648" height="25.107"/>
				
					<rect x="359.337" y="131.037" style="fill:#FFFFFF;stroke:#ADADAD;stroke-linecap:round;stroke-linejoin:round;stroke-miterlimit:10;" width="27.648" height="10.92"/>
			</g>
			<g>
				
					<rect x="398.861" y="138.271" style="fill:#FFFFFF;stroke:#ADADAD;stroke-linecap:round;stroke-linejoin:round;stroke-miterlimit:10;" width="27.648" height="25.107"/>
				
					<rect x="398.861" y="131.037" style="fill:#FFFFFF;stroke:#ADADAD;stroke-linecap:round;stroke-linejoin:round;stroke-miterlimit:10;" width="27.648" height="10.92"/>
			</g>
			<g>
				
					<rect x="319.814" y="186.47" style="fill:#FFFFFF;stroke:#ADADAD;stroke-linecap:round;stroke-linejoin:round;stroke-miterlimit:10;" width="27.648" height="25.107"/>
				
					<rect x="319.814" y="179.236" style="fill:#FFFFFF;stroke:#ADADAD;stroke-linecap:round;stroke-linejoin:round;stroke-miterlimit:10;" width="27.648" height="10.92"/>
			</g>
			<g>
				
					<rect x="359.337" y="186.47" style="fill:#FFFFFF;stroke:#ADADAD;stroke-linecap:round;stroke-linejoin:round;stroke-miterlimit:10;" width="27.648" height="25.107"/>
				
					<rect x="359.337" y="179.236" style="fill:#FFFFFF;stroke:#ADADAD;stroke-linecap:round;stroke-linejoin:round;stroke-miterlimit:10;" width="27.648" height="10.92"/>
			</g>
			<g>
				
					<rect x="398.861" y="186.47" style="fill:#FFFFFF;stroke:#ADADAD;stroke-linecap:round;stroke-linejoin:round;stroke-miterlimit:10;" width="27.648" height="25.107"/>
				
					<rect x="398.861" y="179.236" style="fill:#FFFFFF;stroke:#ADADAD;stroke-linecap:round;stroke-linejoin:round;stroke-miterlimit:10;" width="27.648" height="10.92"/>
			</g>
			<g>
				
					<rect x="319.814" y="234.669" style="fill:#FFFFFF;stroke:#ADADAD;stroke-linecap:round;stroke-linejoin:round;stroke-miterlimit:10;" width="27.648" height="25.107"/>
				
					<rect x="319.814" y="227.435" style="fill:#FFFFFF;stroke:#ADADAD;stroke-linecap:round;stroke-linejoin:round;stroke-miterlimit:10;" width="27.648" height="10.92"/>
			</g>
			<g>
				
					<rect x="359.337" y="234.669" style="fill:#FFFFFF;stroke:#ADADAD;stroke-linecap:round;stroke-linejoin:round;stroke-miterlimit:10;" width="27.648" height="25.107"/>
				
					<rect x="359.337" y="227.435" style="fill:#FFFFFF;stroke:#ADADAD;stroke-linecap:round;stroke-linejoin:round;stroke-miterlimit:10;" width="27.648" height="10.92"/>
			</g>
			<g>
				
					<rect x="398.861" y="234.669" style="fill:#FFFFFF;stroke:#ADADAD;stroke-linecap:round;stroke-linejoin:round;stroke-miterlimit:10;" width="27.648" height="25.107"/>
				
					<rect x="398.861" y="227.435" style="fill:#FFFFFF;stroke:#ADADAD;stroke-linecap:round;stroke-linejoin:round;stroke-miterlimit:10;" width="27.648" height="10.92"/>
			</g>
			<g>
				
					<rect x="319.814" y="282.867" style="fill:#FFFFFF;stroke:#ADADAD;stroke-linecap:round;stroke-linejoin:round;stroke-miterlimit:10;" width="27.648" height="25.107"/>
				
					<rect x="319.814" y="275.634" style="fill:#FFFFFF;stroke:#ADADAD;stroke-linecap:round;stroke-linejoin:round;stroke-miterlimit:10;" width="27.648" height="10.92"/>
			</g>
			<g>
				
					<rect x="359.337" y="282.867" style="fill:#FFFFFF;stroke:#ADADAD;stroke-linecap:round;stroke-linejoin:round;stroke-miterlimit:10;" width="27.648" height="25.107"/>
				
					<rect x="359.337" y="275.634" style="fill:#FFFFFF;stroke:#ADADAD;stroke-linecap:round;stroke-linejoin:round;stroke-miterlimit:10;" width="27.648" height="10.92"/>
			</g>
			<g>
				
					<rect x="398.861" y="282.867" style="fill:#FFFFFF;stroke:#ADADAD;stroke-linecap:round;stroke-linejoin:round;stroke-miterlimit:10;" width="27.648" height="25.107"/>
				
					<rect x="398.861" y="275.634" style="fill:#FFFFFF;stroke:#ADADAD;stroke-linecap:round;stroke-linejoin:round;stroke-miterlimit:10;" width="27.648" height="10.92"/>
			</g>
			<g>
				
					<rect x="319.814" y="331.066" style="fill:#FFFFFF;stroke:#ADADAD;stroke-linecap:round;stroke-linejoin:round;stroke-miterlimit:10;" width="27.648" height="25.107"/>
				
					<rect x="319.814" y="323.832" style="fill:#FFFFFF;stroke:#ADADAD;stroke-linecap:round;stroke-linejoin:round;stroke-miterlimit:10;" width="27.648" height="10.92"/>
			</g>
			<g>
				
					<rect x="359.337" y="331.066" style="fill:#FFFFFF;stroke:#ADADAD;stroke-linecap:round;stroke-linejoin:round;stroke-miterlimit:10;" width="27.648" height="25.107"/>
				
					<rect x="359.337" y="323.832" style="fill:#FFFFFF;stroke:#ADADAD;stroke-linecap:round;stroke-linejoin:round;stroke-miterlimit:10;" width="27.648" height="10.92"/>
			</g>
			<g>
				
					<rect x="398.861" y="331.066" style="fill:#FFFFFF;stroke:#ADADAD;stroke-linecap:round;stroke-linejoin:round;stroke-miterlimit:10;" width="27.648" height="25.107"/>
				
					<rect x="398.861" y="323.832" style="fill:#FFFFFF;stroke:#ADADAD;stroke-linecap:round;stroke-linejoin:round;stroke-miterlimit:10;" width="27.648" height="10.92"/>
			</g>
			<g>
				
					<rect x="319.814" y="379.265" style="fill:#FFFFFF;stroke:#ADADAD;stroke-linecap:round;stroke-linejoin:round;stroke-miterlimit:10;" width="27.648" height="25.107"/>
				
					<rect x="319.814" y="372.031" style="fill:#FFFFFF;stroke:#ADADAD;stroke-linecap:round;stroke-linejoin:round;stroke-miterlimit:10;" width="27.648" height="10.92"/>
			</g>
			<g>
				
					<rect x="359.337" y="379.265" style="fill:#FFFFFF;stroke:#ADADAD;stroke-linecap:round;stroke-linejoin:round;stroke-miterlimit:10;" width="27.648" height="25.107"/>
				
					<rect x="359.337" y="372.031" style="fill:#FFFFFF;stroke:#ADADAD;stroke-linecap:round;stroke-linejoin:round;stroke-miterlimit:10;" width="27.648" height="10.92"/>
			</g>
			<g>
				
					<rect x="398.861" y="379.265" style="fill:#FFFFFF;stroke:#ADADAD;stroke-linecap:round;stroke-linejoin:round;stroke-miterlimit:10;" width="27.648" height="25.107"/>
				
					<rect x="398.861" y="372.031" style="fill:#FFFFFF;stroke:#ADADAD;stroke-linecap:round;stroke-linejoin:round;stroke-miterlimit:10;" width="27.648" height="10.92"/>
			</g>
		</g>
		
			<rect x="318.455" y="418.929" style="fill:#FFFFFF;stroke:#ADADAD;stroke-linecap:round;stroke-linejoin:round;stroke-miterlimit:10;" width="107.702" height="13.664"/>
		
			<rect x="318.455" y="414.977" style="fill:#FFFFFF;stroke:#ADADAD;stroke-linecap:round;stroke-linejoin:round;stroke-miterlimit:10;" width="107.702" height="13.664"/>
		
			<rect x="217.183" y="78.206" style="fill:#ADADAD;stroke:#ADADAD;stroke-linecap:round;stroke-linejoin:round;stroke-miterlimit:10;" width="58.673" height="36.168"/>
		
			<rect x="255.554" y="78.206" style="fill:#FFFFFF;stroke:#ADADAD;stroke-linecap:round;stroke-linejoin:round;stroke-miterlimit:10;" width="20.302" height="36.168"/>
		
			<rect x="400.437" y="87.048" style="fill:#FFFFFF;stroke:#ADADAD;stroke-linecap:round;stroke-linejoin:round;stroke-miterlimit:10;" width="24.112" height="27.327"/>
		
			<rect x="389.293" y="87.048" style="fill:#ADADAD;stroke:#ADADAD;stroke-linecap:round;stroke-linejoin:round;stroke-miterlimit:10;" width="24.112" height="27.327"/>
		
			<rect x="211.996" y="97.09" style="fill:#FFFFFF;stroke:#ADADAD;stroke-linecap:round;stroke-linejoin:round;stroke-miterlimit:10;" width="228.395" height="17.285"/>
		
			<rect x="303.812" y="97.09" style="fill:#FFFFFF;stroke:#ADADAD;stroke-linecap:round;stroke-linejoin:round;stroke-miterlimit:10;" width="136.58" height="17.285"/>
		<g>
			
				<line style="fill:#FFFFFF;stroke:#ADADAD;stroke-linecap:round;stroke-linejoin:round;stroke-miterlimit:10;" x1="309.688" y1="97.09" x2="309.688" y2="104.349"/>
			
				<line style="fill:#FFFFFF;stroke:#ADADAD;stroke-linecap:round;stroke-linejoin:round;stroke-miterlimit:10;" x1="313.425" y1="97.09" x2="313.425" y2="104.349"/>
			
				<line style="fill:#FFFFFF;stroke:#ADADAD;stroke-linecap:round;stroke-linejoin:round;stroke-miterlimit:10;" x1="313.425" y1="106.307" x2="313.425" y2="111.851"/>
			
				<line style="fill:#FFFFFF;stroke:#ADADAD;stroke-linecap:round;stroke-linejoin:round;stroke-miterlimit:10;" x1="317.162" y1="97.09" x2="317.162" y2="104.349"/>
			
				<line style="fill:#FFFFFF;stroke:#ADADAD;stroke-linecap:round;stroke-linejoin:round;stroke-miterlimit:10;" x1="317.162" y1="106.62" x2="317.162" y2="111.759"/>
			
				<line style="fill:#FFFFFF;stroke:#ADADAD;stroke-linecap:round;stroke-linejoin:round;stroke-miterlimit:10;" x1="320.649" y1="106.62" x2="320.649" y2="109.858"/>
			
				<line style="fill:#FFFFFF;stroke:#ADADAD;stroke-linecap:round;stroke-linejoin:round;stroke-miterlimit:10;" x1="320.898" y1="97.09" x2="320.898" y2="104.349"/>
			
				<line style="fill:#FFFFFF;stroke:#ADADAD;stroke-linecap:round;stroke-linejoin:round;stroke-miterlimit:10;" x1="325.134" y1="102.508" x2="325.134" y2="104.349"/>
			
				<line style="fill:#FFFFFF;stroke:#ADADAD;stroke-linecap:round;stroke-linejoin:round;stroke-miterlimit:10;" x1="325.383" y1="97.09" x2="325.383" y2="101.217"/>
			
				<line style="fill:#FFFFFF;stroke:#ADADAD;stroke-linecap:round;stroke-linejoin:round;stroke-miterlimit:10;" x1="309.688" y1="105.809" x2="309.688" y2="110.107"/>
		</g>
	</g>
</g>
<g id="Plants">
	<g>
		<path style="fill:#263238;" d="M25.827,160.346c4.265,1.862,14.695,1.627,14.703,1.627c0.108-0.003-2.242-6.828-2.44-7.241
			c-2.288-4.788-9.526-12.692-15.414-11.897c-4.242,0.574-6.601,4.819-5.644,8.813C18.01,155.728,22.195,158.758,25.827,160.346z"/>
		<path style="fill:#263238;" d="M29.427,190.557c4.423,0.645,13.732-2.054,14.472-2.273c1.47,5.211,3.4,10.439,5.646,15.621
			c1.28,2.965,2.662,5.91,4.085,8.847c-0.849-1.243-1.618-2.349-1.741-2.493c-3.473-4.014-12.54-9.726-18.008-7.402
			c-3.942,1.673-5.095,6.39-3.117,9.99c2.019,3.676,6.858,5.495,10.779,6.065c3.98,0.581,11.961-1.562,14.067-2.157
			c0.558,1.121,1.102,2.246,1.664,3.364c2.696,5.367,5.408,10.711,7.909,16.035c0.882,1.875,1.682,3.755,2.489,5.633
			c-0.755-1.104-1.401-2.028-1.514-2.159c-3.472-4.012-12.539-9.725-18.008-7.402c-3.941,1.673-5.095,6.391-3.116,9.99
			c2.022,3.676,6.858,5.494,10.78,6.065c3.798,0.554,11.183-1.357,13.687-2.052c0.769,1.948,1.542,3.897,2.199,5.819
			c0.419,1.323,0.915,2.567,1.26,3.918c0.372,1.331,0.739,2.649,1.103,3.954c0.609,2.538,1.253,5.154,1.785,7.646
			c0.383,1.73,0.716,3.386,1.057,5.053c-0.856-1.877-2.61-5.517-2.792-5.805c-2.823-4.493-10.92-11.512-16.679-10.045
			c-4.148,1.057-6.004,5.545-4.592,9.403c1.44,3.939,5.945,6.47,9.735,7.629c4.173,1.275,13.412,0.11,14.565-0.043
			c0.554,2.76,1.066,5.451,1.509,7.997c0.332,1.885,0.635,3.696,0.913,5.436h3.7c-0.349-1.937-0.731-3.963-1.153-6.083
			c-0.551-2.805-1.195-5.792-1.887-8.853c0.695-0.276,4.635-1.87,8.126-3.821c3.041,3.294,10.835,7.148,11.843,7.638
			c-1.06,2.608-2.117,5.135-3.153,7.503c-0.545,1.255-1.075,2.439-1.603,3.616h3.913c0.311-0.744,0.618-1.472,0.934-2.246
			c1.088-2.643,2.199-5.491,3.311-8.424c1.118,0.234,10.263,2.091,14.526,1.129c3.865-0.874,8.548-3.061,10.279-6.883
			c1.694-3.741,0.178-8.355-3.882-9.718c-5.632-1.892-14.23,4.505-17.38,8.775c-0.187,0.252-1.897,3.21-2.946,5.094
			c0.448-1.201,0.896-2.362,1.342-3.605c0.9-2.45,1.724-4.922,2.621-7.578c0.388-1.298,0.781-2.609,1.177-3.933
			c0.42-1.305,0.699-2.737,1.058-4.116c0.767-3.217,1.386-6.513,1.936-9.848c2.147,0.781,9.814,3.449,13.786,3.169
			c3.954-0.278,8.912-1.73,11.201-5.245c2.242-3.441,1.442-8.233-2.363-10.195c-5.281-2.723-14.749,2.298-18.51,6.041
			c-0.235,0.233-2.631,3.222-3.916,4.889c0.315-2.007,0.64-4.009,0.893-6.05c0.731-5.892,1.288-11.878,1.87-17.848
			c0.177-1.829,0.376-3.649,0.568-5.471c0.761,0.287,9.804,3.654,14.253,3.341c3.953-0.277,8.913-1.73,11.202-5.246
			c2.242-3.441,1.442-8.232-2.363-10.194c-5.281-2.724-14.749,2.297-18.509,6.04c-0.283,0.282-3.726,4.588-4.548,5.726
			c0.424-4.015,0.884-8.01,1.498-11.932c0.838-5.411,1.961-10.674,3.425-15.693c0.354,0.135,9.777,3.691,14.333,3.371
			c3.954-0.278,8.913-1.73,11.202-5.246c2.241-3.441,1.442-8.232-2.363-10.195c-5.282-2.724-14.749,2.298-18.51,6.04
			c-0.295,0.294-3.996,4.929-4.607,5.817c0.088-0.298,0.146-0.617,0.238-0.913c1.631-5.338,3.882-10.304,6.217-14.849
			c1.351-2.645,2.792-5.097,4.245-7.451c1.688,0.843,9.44,4.607,13.572,4.772c3.96,0.158,9.049-0.741,11.71-3.984
			c2.606-3.175,2.338-8.024-1.228-10.393c-4.951-3.287-14.912,0.664-19.062,3.971c-0.225,0.179-2.316,2.262-3.818,3.8
			c0.672-1.053,1.346-2.151,2.011-3.146c2.486-3.744,4.993-7.018,7.237-9.901c1.289-1.628,2.486-3.076,3.622-4.418
			c2.086-0.036,10.494-0.292,14.171-2.017c3.586-1.685,7.69-4.827,8.557-8.931c0.849-4.019-1.624-8.2-5.88-8.657
			c-5.908-0.637-12.929,7.46-15.088,12.308c-0.186,0.419-2.351,7.306-2.242,7.305c0,0,0.101-0.001,0.126-0.001
			c-1.119,1.269-2.302,2.644-3.566,4.171c-2.311,2.839-4.896,6.068-7.472,9.772c-2.585,3.695-5.289,7.782-7.749,12.344
			c-2.472,4.57-4.838,9.503-6.619,14.901c-0.02,0.061-0.033,0.127-0.054,0.188c0.031-1.741-0.046-6.611-0.095-6.983
			c-0.682-5.262-5.092-15.03-10.937-16.11c-4.209-0.777-7.775,2.52-8.11,6.614c-0.342,4.181,2.689,8.365,5.645,11.006
			c3.333,2.978,12.586,5.861,13.323,6.089c-1.649,5.156-2.922,10.581-3.909,16.142c-0.567,3.18-1.039,6.399-1.472,9.633
			c-0.022-1.506-0.052-2.853-0.078-3.04c-0.682-5.263-5.092-15.029-10.936-16.109c-4.21-0.779-7.775,2.52-8.11,6.613
			c-0.343,4.181,2.688,8.365,5.644,11.006c2.999,2.679,10.839,5.296,12.922,5.961c-0.153,1.242-0.32,2.482-0.468,3.725
			c-0.713,5.963-1.398,11.917-2.249,17.737c-0.298,2.051-0.668,4.059-1.031,6.07c-0.021-1.337-0.05-2.463-0.072-2.634
			c-0.683-5.263-5.092-15.029-10.935-16.11c-4.211-0.777-7.776,2.52-8.112,6.615c-0.343,4.179,2.69,8.365,5.646,11.005
			c2.861,2.557,10.076,5.038,12.548,5.839c-0.433,2.049-0.864,4.101-1.377,6.067c-0.381,1.334-0.654,2.644-1.11,3.964
			c-0.424,1.314-0.844,2.617-1.26,3.906c-0.894,2.454-1.799,4.991-2.729,7.362c-0.635,1.655-1.271,3.22-1.906,4.797
			c0.321-2.038,0.866-6.041,0.874-6.38c0.081-3.524-1.171-9.255-3.662-13.283c0.015-0.52-0.014-1.039-0.097-1.555
			c-0.652-4.056-4.462-7.068-8.599-5.966c-5.742,1.529-9.384,11.609-9.655,16.907c-0.016,0.313,0.188,3.724,0.353,5.874
			c-0.29-1.249-0.555-2.465-0.869-3.747c-0.602-2.54-1.278-5.056-1.994-7.768c-0.392-1.297-0.789-2.605-1.189-3.929
			c-0.369-1.319-0.926-2.667-1.388-4.016c-1.136-3.105-2.438-6.197-3.818-9.282c2.224-0.533,10.089-2.538,13.247-4.962
			c3.145-2.412,6.479-6.36,6.45-10.554c-0.03-4.108-3.338-7.663-7.595-7.2c-5.908,0.641-11.035,10.053-12.107,15.249
			c-0.066,0.325-0.416,4.139-0.569,6.239c-0.844-1.847-1.678-3.697-2.593-5.539c-2.639-5.318-5.477-10.618-8.286-15.918
			c-0.861-1.623-1.699-3.25-2.545-4.876c0.793-0.182,10.194-2.363,13.732-5.077c3.144-2.412,6.479-6.36,6.449-10.555
			c-0.03-4.107-3.339-7.662-7.594-7.199c-5.908,0.641-11.035,10.052-12.107,15.249c-0.08,0.392-0.576,5.882-0.634,7.284
			c-1.861-3.581-3.681-7.168-5.334-10.777c-2.285-4.976-4.253-9.985-5.8-14.978c0.37-0.084,10.191-2.317,13.815-5.096
			c3.145-2.412,6.479-6.36,6.449-10.555c-0.029-4.107-3.338-7.661-7.595-7.199c-5.907,0.641-11.034,10.053-12.106,15.249
			c-0.084,0.408-0.614,6.316-0.634,7.392c-0.092-0.296-0.22-0.594-0.307-0.891c-1.583-5.354-2.446-10.736-3.006-15.816
			c-0.332-2.95-0.483-5.79-0.569-8.555c1.872-0.228,10.415-1.366,13.952-3.507c3.391-2.053,7.139-5.61,7.57-9.782
			c0.422-4.086-2.477-7.983-6.758-7.99c-5.942-0.012-12.072,8.78-13.708,13.827c-0.089,0.275-0.685,3.165-1.089,5.277
			c-0.019-1.249-0.063-2.537-0.058-3.734c0.009-4.493,0.292-8.608,0.574-12.25c0.177-2.07,0.378-3.938,0.585-5.683
			c1.719-1.183,8.591-6.034,10.705-9.501c2.063-3.384,3.75-8.268,2.21-12.169c-1.508-3.821-5.878-5.943-9.679-3.978
			c-5.279,2.729-6.668,13.356-5.795,18.59c0.077,0.452,2.07,7.39,2.161,7.33c0,0,0.084-0.058,0.103-0.072
			c-0.233,1.675-0.462,3.476-0.673,5.447c-0.362,3.643-0.737,7.762-0.842,12.273c-0.117,4.508-0.118,9.409,0.347,14.571
			c0.46,5.174,1.206,10.595,2.699,16.079c0.017,0.062,0.043,0.125,0.06,0.186c-0.935-1.469-3.687-5.488-3.933-5.772
			c-3.472-4.013-12.539-9.725-18.008-7.403c-3.94,1.674-5.095,6.392-3.116,9.991C20.67,188.168,25.506,189.985,29.427,190.557z"/>
		<path style="fill:#263238;" d="M131.326,162.639c0.092,0.058,1.897-6.932,1.961-7.386c0.731-5.255-0.944-15.841-6.295-18.426
			c-3.854-1.862-8.164,0.378-9.568,4.238c-1.435,3.941,0.384,8.778,2.538,12.105C122.49,157.077,131.319,162.634,131.326,162.639z"
			/>
	</g>
	<g>
		<path style="fill:#263238;" d="M287.177,393.856c2.362,1.031,8.138,0.901,8.142,0.901c0.06-0.001-1.242-3.781-1.351-4.01
			c-1.267-2.651-5.275-7.029-8.536-6.588c-2.349,0.318-3.656,2.669-3.125,4.881C282.849,391.299,285.166,392.977,287.177,393.856z"
			/>
		<path style="fill:#263238;" d="M289.171,410.587c2.45,0.357,7.604-1.138,8.014-1.259c0.814,2.886,1.883,5.781,3.127,8.651
			c0.709,1.642,1.474,3.273,2.262,4.899c-0.47-0.689-0.896-1.301-0.964-1.381c-1.923-2.223-6.944-5.386-9.973-4.099
			c-2.183,0.926-2.821,3.539-1.726,5.532c1.118,2.036,3.798,3.043,5.969,3.359c2.204,0.322,6.624-0.865,7.79-1.194
			c0.309,0.621,0.61,1.244,0.922,1.863c1.493,2.972,2.995,5.932,4.38,8.88c0.489,1.038,0.931,2.079,1.379,3.119
			c-0.418-0.612-0.776-1.123-0.838-1.196c-1.923-2.222-6.944-5.386-9.973-4.099c-2.182,0.927-2.821,3.539-1.726,5.532
			c1.12,2.036,3.798,3.043,5.97,3.359c2.103,0.307,6.193-0.752,7.58-1.137c0.426,1.079,0.854,2.158,1.218,3.223
			c0.232,0.732,0.507,1.421,0.698,2.17c0.206,0.737,0.409,1.467,0.611,2.19c0.337,1.406,0.694,2.854,0.988,4.234
			c0.212,0.958,0.397,1.875,0.585,2.799c-0.474-1.04-1.446-3.055-1.546-3.215c-1.563-2.488-6.048-6.375-9.237-5.563
			c-2.297,0.586-3.325,3.071-2.543,5.207c0.798,2.182,3.292,3.583,5.391,4.225c2.311,0.706,7.427,0.061,8.066-0.024
			c0.307,1.529,0.59,3.018,0.836,4.429c0.184,1.044,0.352,2.047,0.506,3.01h2.049c-0.193-1.073-0.405-2.195-0.638-3.369
			c-0.305-1.553-0.662-3.207-1.045-4.902c0.385-0.153,2.567-1.035,4.5-2.116c1.684,1.824,6,3.958,6.559,4.23
			c-0.587,1.444-1.173,2.843-1.746,4.155c-0.302,0.695-0.595,1.351-0.888,2.002h2.167c0.172-0.412,0.342-0.815,0.517-1.244
			c0.603-1.464,1.218-3.041,1.833-4.665c0.619,0.129,5.684,1.158,8.044,0.625c2.14-0.484,4.734-1.695,5.692-3.812
			c0.938-2.072,0.098-4.627-2.15-5.382c-3.119-1.048-7.881,2.495-9.625,4.859c-0.103,0.139-1.051,1.778-1.631,2.821
			c0.248-0.665,0.496-1.308,0.743-1.996c0.499-1.357,0.955-2.726,1.452-4.197c0.215-0.719,0.432-1.445,0.652-2.178
			c0.233-0.723,0.387-1.516,0.586-2.279c0.424-1.782,0.767-3.607,1.072-5.453c1.189,0.432,5.435,1.91,7.634,1.755
			c2.189-0.154,4.935-0.958,6.203-2.905c1.241-1.906,0.799-4.559-1.309-5.646c-2.925-1.508-8.168,1.273-10.251,3.345
			c-0.13,0.129-1.457,1.784-2.168,2.708c0.174-1.112,0.354-2.22,0.494-3.35c0.405-3.263,0.713-6.578,1.036-9.884
			c0.098-1.013,0.208-2.021,0.315-3.03c0.422,0.159,5.43,2.023,7.893,1.85c2.189-0.153,4.936-0.958,6.203-2.905
			c1.241-1.906,0.798-4.559-1.309-5.645c-2.924-1.509-8.167,1.272-10.25,3.345c-0.157,0.156-2.063,2.541-2.519,3.171
			c0.235-2.223,0.49-4.436,0.829-6.608c0.464-2.996,1.086-5.911,1.897-8.69c0.196,0.075,5.415,2.044,7.937,1.867
			c2.189-0.154,4.936-0.958,6.203-2.905c1.241-1.906,0.799-4.559-1.309-5.646c-2.925-1.508-8.168,1.272-10.251,3.345
			c-0.163,0.163-2.213,2.729-2.552,3.221c0.049-0.165,0.081-0.342,0.132-0.506c0.903-2.956,2.15-5.706,3.443-8.223
			c0.748-1.464,1.546-2.822,2.351-4.126c0.934,0.467,5.228,2.551,7.516,2.643c2.193,0.087,5.011-0.41,6.485-2.206
			c1.443-1.758,1.295-4.444-0.68-5.755c-2.742-1.82-8.258,0.368-10.556,2.199c-0.125,0.099-1.283,1.253-2.114,2.105
			c0.372-0.583,0.745-1.191,1.113-1.742c1.377-2.073,2.765-3.887,4.008-5.483c0.714-0.902,1.377-1.703,2.006-2.447
			c1.155-0.02,5.812-0.162,7.848-1.117c1.986-0.933,4.259-2.673,4.739-4.946c0.47-2.226-0.899-4.541-3.256-4.794
			c-3.272-0.353-7.16,4.131-8.355,6.816c-0.103,0.232-1.302,4.046-1.242,4.045c0,0,0.056-0.001,0.07-0.001
			c-0.62,0.703-1.275,1.464-1.975,2.31c-1.28,1.572-2.712,3.36-4.138,5.411c-1.431,2.046-2.929,4.31-4.291,6.836
			c-1.369,2.531-2.679,5.262-3.666,8.252c-0.011,0.034-0.018,0.07-0.03,0.104c0.017-0.964-0.025-3.661-0.052-3.867
			c-0.378-2.914-2.82-8.323-6.057-8.922c-2.331-0.43-4.305,1.396-4.491,3.663c-0.189,2.315,1.489,4.632,3.126,6.095
			c1.846,1.649,6.97,3.246,7.378,3.372c-0.914,2.855-1.618,5.86-2.165,8.939c-0.314,1.761-0.576,3.544-0.815,5.335
			c-0.012-0.834-0.029-1.58-0.043-1.684c-0.378-2.915-2.82-8.323-6.056-8.921c-2.331-0.431-4.306,1.396-4.491,3.662
			c-0.19,2.315,1.489,4.633,3.126,6.095c1.661,1.483,6.002,2.933,7.156,3.301c-0.085,0.688-0.177,1.374-0.259,2.063
			c-0.395,3.302-0.774,6.6-1.246,9.822c-0.165,1.136-0.37,2.248-0.571,3.361c-0.012-0.74-0.028-1.364-0.04-1.458
			c-0.378-2.915-2.82-8.323-6.056-8.921c-2.332-0.431-4.306,1.395-4.492,3.663c-0.19,2.314,1.49,4.632,3.127,6.094
			c1.585,1.416,5.58,2.79,6.949,3.233c-0.24,1.135-0.479,2.271-0.763,3.36c-0.211,0.739-0.362,1.464-0.615,2.195
			c-0.235,0.728-0.468,1.449-0.698,2.163c-0.495,1.359-0.996,2.764-1.512,4.077c-0.352,0.916-0.704,1.783-1.056,2.657
			c0.178-1.128,0.48-3.345,0.484-3.533c0.045-1.952-0.648-5.125-2.028-7.356c0.008-0.288-0.008-0.576-0.054-0.861
			c-0.361-2.246-2.471-3.914-4.762-3.304c-3.18,0.846-5.197,6.429-5.347,9.363c-0.009,0.173,0.104,2.062,0.196,3.253
			c-0.161-0.692-0.308-1.365-0.481-2.075c-0.333-1.406-0.708-2.8-1.104-4.302c-0.217-0.718-0.437-1.443-0.659-2.176
			c-0.204-0.731-0.513-1.477-0.768-2.224c-0.629-1.719-1.35-3.432-2.114-5.14c1.231-0.295,5.587-1.405,7.336-2.748
			c1.741-1.336,3.588-3.522,3.572-5.845c-0.017-2.275-1.849-4.243-4.206-3.987c-3.272,0.355-6.111,5.567-6.705,8.445
			c-0.037,0.18-0.231,2.292-0.315,3.455c-0.467-1.023-0.929-2.047-1.436-3.067c-1.462-2.945-3.033-5.88-4.589-8.815
			c-0.477-0.899-0.941-1.8-1.409-2.7c0.439-0.101,5.645-1.309,7.604-2.812c1.741-1.336,3.588-3.522,3.572-5.845
			c-0.016-2.274-1.849-4.243-4.206-3.987c-3.272,0.355-6.111,5.567-6.705,8.445c-0.044,0.217-0.319,3.257-0.351,4.034
			c-1.03-1.983-2.039-3.97-2.954-5.968c-1.266-2.756-2.355-5.529-3.212-8.294c0.205-0.047,5.644-1.283,7.65-2.822
			c1.741-1.336,3.588-3.522,3.571-5.845c-0.016-2.275-1.849-4.243-4.206-3.987c-3.271,0.355-6.11,5.567-6.704,8.445
			c-0.047,0.226-0.34,3.498-0.351,4.094c-0.051-0.164-0.122-0.329-0.17-0.493c-0.877-2.965-1.355-5.946-1.665-8.759
			c-0.184-1.634-0.267-3.206-0.315-4.738c1.037-0.126,5.768-0.756,7.727-1.942c1.878-1.137,3.954-3.107,4.192-5.417
			c0.234-2.263-1.372-4.421-3.742-4.425c-3.291-0.006-6.685,4.862-7.591,7.657c-0.049,0.152-0.38,1.753-0.603,2.922
			c-0.011-0.691-0.035-1.405-0.032-2.068c0.005-2.488,0.162-4.767,0.318-6.784c0.098-1.147,0.209-2.181,0.324-3.147
			c0.952-0.655,4.758-3.341,5.928-5.262c1.143-1.874,2.077-4.578,1.224-6.739c-0.835-2.116-3.255-3.291-5.36-2.203
			c-2.924,1.511-3.693,7.396-3.209,10.295c0.042,0.25,1.146,4.092,1.197,4.059c0,0,0.046-0.032,0.057-0.04
			c-0.129,0.928-0.256,1.925-0.372,3.016c-0.201,2.017-0.408,4.298-0.466,6.797c-0.065,2.496-0.065,5.211,0.192,8.069
			c0.255,2.865,0.668,5.867,1.495,8.904c0.009,0.034,0.024,0.069,0.033,0.103c-0.518-0.813-2.042-3.039-2.178-3.197
			c-1.923-2.222-6.944-5.386-9.973-4.1c-2.182,0.927-2.822,3.54-1.726,5.533C284.321,409.264,287,410.27,289.171,410.587z"/>
		<path style="fill:#263238;" d="M345.601,395.127c0.051,0.032,1.051-3.839,1.086-4.09c0.405-2.91-0.523-8.772-3.486-10.204
			c-2.134-1.031-4.521,0.209-5.298,2.347c-0.795,2.182,0.212,4.861,1.405,6.703C340.708,392.046,345.597,395.124,345.601,395.127z"
			/>
	</g>
</g>
<g id="Certificate">
	<g>
		<path style="fill:#263238;" d="M273.851,464.102H82.84c-6.511,0-11.788-5.278-11.788-11.788V197.051
			c0-6.51,5.278-11.788,11.788-11.788h191.012c6.51,0,11.788,5.278,11.788,11.788v255.263
			C285.64,458.824,280.362,464.102,273.851,464.102z"/>
		<g>
			
				<rect x="81.319" y="201.748" style="fill:#FFFFFF;stroke:#263238;stroke-linecap:round;stroke-linejoin:round;stroke-miterlimit:10;" width="194.053" height="249.121"/>
			
				<line style="fill:none;stroke:#263238;stroke-linecap:round;stroke-linejoin:round;stroke-miterlimit:10;" x1="138.94" y1="239.058" x2="217.751" y2="239.058"/>
			
				<line style="fill:none;stroke:#263238;stroke-linecap:round;stroke-linejoin:round;stroke-miterlimit:10;" x1="228.033" y1="273.008" x2="255.339" y2="273.008"/>
			
				<line style="fill:none;stroke:#263238;stroke-linecap:round;stroke-linejoin:round;stroke-miterlimit:10;" x1="149.464" y1="273.008" x2="221.531" y2="273.008"/>
			
				<line style="fill:none;stroke:#263238;stroke-linecap:round;stroke-linejoin:round;stroke-miterlimit:10;" x1="115.87" y1="273.008" x2="144.588" y2="273.008"/>
			
				<line style="fill:none;stroke:#263238;stroke-linecap:round;stroke-linejoin:round;stroke-miterlimit:10;" x1="101.353" y1="273.008" x2="108.826" y2="273.008"/>
			
				<line style="fill:none;stroke:#263238;stroke-linecap:round;stroke-linejoin:round;stroke-miterlimit:10;" x1="228.575" y1="299.683" x2="255.339" y2="299.683"/>
			
				<line style="fill:none;stroke:#263238;stroke-linecap:round;stroke-linejoin:round;stroke-miterlimit:10;" x1="184.143" y1="299.683" x2="223.156" y2="299.683"/>
			
				<line style="fill:none;stroke:#263238;stroke-linecap:round;stroke-linejoin:round;stroke-miterlimit:10;" x1="117.495" y1="299.683" x2="178.183" y2="299.683"/>
			
				<line style="fill:none;stroke:#263238;stroke-linecap:round;stroke-linejoin:round;stroke-miterlimit:10;" x1="101.353" y1="299.683" x2="110.451" y2="299.683"/>
			
				<line style="fill:none;stroke:#263238;stroke-linecap:round;stroke-linejoin:round;stroke-miterlimit:10;" x1="213.403" y1="326.358" x2="255.339" y2="326.358"/>
			
				<line style="fill:none;stroke:#263238;stroke-linecap:round;stroke-linejoin:round;stroke-miterlimit:10;" x1="123.455" y1="326.358" x2="205.817" y2="326.358"/>
			
				<line style="fill:none;stroke:#263238;stroke-linecap:round;stroke-linejoin:round;stroke-miterlimit:10;" x1="101.353" y1="326.358" x2="116.953" y2="326.358"/>
			
				<line style="fill:none;stroke:#263238;stroke-linecap:round;stroke-linejoin:round;stroke-miterlimit:10;" x1="245.372" y1="353.033" x2="255.339" y2="353.033"/>
			
				<line style="fill:none;stroke:#263238;stroke-linecap:round;stroke-linejoin:round;stroke-miterlimit:10;" x1="129.958" y1="353.033" x2="235.077" y2="353.033"/>
			
				<line style="fill:none;stroke:#263238;stroke-linecap:round;stroke-linejoin:round;stroke-miterlimit:10;" x1="101.353" y1="353.033" x2="122.372" y2="353.033"/>
			
				<line style="fill:none;stroke:#263238;stroke-linecap:round;stroke-linejoin:round;stroke-miterlimit:10;" x1="243.747" y1="379.707" x2="255.339" y2="379.707"/>
			
				<line style="fill:none;stroke:#263238;stroke-linecap:round;stroke-linejoin:round;stroke-miterlimit:10;" x1="153.257" y1="379.707" x2="235.077" y2="379.707"/>
			
				<line style="fill:none;stroke:#263238;stroke-linecap:round;stroke-linejoin:round;stroke-miterlimit:10;" x1="101.353" y1="379.707" x2="146.213" y2="379.707"/>
			
				<line style="fill:none;stroke:#263238;stroke-linecap:round;stroke-linejoin:round;stroke-miterlimit:10;" x1="203.108" y1="406.382" x2="255.339" y2="406.382"/>
			
				<line style="fill:none;stroke:#263238;stroke-linecap:round;stroke-linejoin:round;stroke-miterlimit:10;" x1="101.353" y1="406.382" x2="192.813" y2="406.382"/>
		</g>
		<path style="fill:#FFFFFF;stroke:#263238;stroke-linecap:round;stroke-linejoin:round;stroke-miterlimit:10;" d="M203.903,179.632
			c-4.213,0-6.527-4.626-4.288-8.194c2.303-3.669,3.342-8.21,2.506-13.023c-1.254-7.222-6.953-13.174-14.128-14.674
			c-11.886-2.486-22.352,6.519-22.352,17.968c0,3.699,1.095,7.139,2.977,10.018c2.221,3.398-0.409,7.906-4.469,7.906h-31.966
			l8.64,24.817h86.401l8.64-24.817H203.903z M184.025,169.061c-3.554,0-6.434-2.881-6.434-6.434c0-3.554,2.881-6.434,6.434-6.434
			c3.553,0,6.434,2.88,6.434,6.434C190.459,166.181,187.578,169.061,184.025,169.061z"/>
	</g>
</g>
<g id="Check_Mark">
	<g>
		
			<ellipse transform="matrix(0.7403 -0.6723 0.6723 0.7403 -247.0364 188.1331)" style="fill:#263238;stroke:#263238;stroke-linecap:round;stroke-linejoin:round;stroke-miterlimit:10;" cx="119.991" cy="413.817" rx="22.216" ry="22.216"/>
		<g>
			<g>
				<path style="fill:#92E3A9;" d="M121.577,423.142c-1.454-0.017-2.813-0.652-3.748-1.742l-9.753-11.378
					c-1.79-2.091-1.547-5.247,0.542-7.036c0.903-0.775,2.056-1.201,3.245-1.201c1.46,0,2.841,0.635,3.79,1.741l6.052,7.062
					l20.041-22.319c0.946-1.052,2.299-1.655,3.714-1.655c1.231,0,2.414,0.453,3.331,1.276c2.048,1.839,2.218,5,0.379,7.047
					l-23.841,26.55c-0.945,1.053-2.298,1.656-3.713,1.656H121.577z"/>
				<path style="fill:#263238;" d="M145.46,388.113c0.83,0,1.663,0.294,2.33,0.892c1.434,1.288,1.553,3.495,0.265,4.928
					l-23.841,26.55c-0.662,0.737-1.606,1.158-2.596,1.158c-0.013,0-0.027,0-0.04,0c-1.005-0.012-1.956-0.456-2.609-1.218
					l-9.754-11.379c-1.254-1.464-1.085-3.667,0.379-4.921c0.658-0.564,1.466-0.84,2.269-0.84c0.984,0,1.961,0.413,2.651,1.218
					l7.165,8.359l21.184-23.591C143.551,388.503,144.503,388.113,145.46,388.113 M145.46,385.113L145.46,385.113
					c-1.84,0-3.601,0.784-4.83,2.152l-18.9,21.048l-4.939-5.763c-1.235-1.44-3.031-2.266-4.929-2.266
					c-1.547,0-3.046,0.555-4.221,1.562c-2.717,2.329-3.033,6.434-0.705,9.151l9.754,11.379c1.216,1.418,2.984,2.243,4.852,2.266
					l0.018,0h0.058c1.839,0,3.599-0.785,4.828-2.153l23.842-26.55c2.391-2.662,2.17-6.773-0.493-9.165
					C148.601,385.702,147.062,385.113,145.46,385.113L145.46,385.113z"/>
			</g>
		</g>
	</g>
</g>
<g id="Crane">
	<g>
		
			<line style="fill:none;stroke:#263238;stroke-linecap:round;stroke-linejoin:round;stroke-miterlimit:10;" x1="184.48" y1="156.193" x2="184.48" y2="94.111"/>
		<g>
			<g>
				<path style="fill:none;stroke:#263238;stroke-width:3;stroke-linecap:round;stroke-linejoin:round;stroke-miterlimit:10;" d="
					M181.642,81.684v5.788l-2.315,4.051c0,2.694,2.184,4.878,4.878,4.878l0,0c2.694,0,4.878-2.184,4.878-4.878v-4.051"/>
				
					<rect x="176.617" y="70.565" transform="matrix(-1 -1.224647e-16 1.224647e-16 -1 362.9905 151.9699)" style="fill:#FFFFFF;stroke:#263238;stroke-linecap:round;stroke-linejoin:round;stroke-miterlimit:10;" width="9.756" height="10.84"/>
				
					<rect x="173.004" y="56.021" transform="matrix(-1 -1.224647e-16 1.224647e-16 -1 362.9905 133.8129)" style="fill:#FFFFFF;stroke:#263238;stroke-linecap:round;stroke-linejoin:round;stroke-miterlimit:10;" width="16.983" height="21.771"/>
				
					<rect x="167.945" y="66.951" transform="matrix(-1 -1.224647e-16 1.224647e-16 -1 362.8099 140.5876)" style="fill:#FFFFFF;stroke:#263238;stroke-linecap:round;stroke-linejoin:round;stroke-miterlimit:10;" width="26.92" height="6.685"/>
				<g>
					<polygon style="fill:#263238;" points="181.493,66.951 185.347,66.951 190.798,73.132 190.226,73.636 187.388,73.636 					"/>
					<polygon style="fill:#263238;" points="192.755,66.951 194.865,69.344 194.865,73.636 194.796,73.636 188.9,66.951 					"/>
					<polygon style="fill:#263238;" points="174.085,66.951 177.939,66.951 183.39,73.132 182.818,73.636 179.981,73.636 					"/>
					<polygon style="fill:#263238;" points="167.945,68.388 167.945,66.951 170.532,66.951 175.983,73.132 175.411,73.636 
						172.573,73.636 					"/>
				</g>
			</g>
			<g>
				
					<line style="fill:#FFFFFF;stroke:#263238;stroke-width:2;stroke-linecap:round;stroke-linejoin:round;stroke-miterlimit:10;" x1="181.881" y1="55.642" x2="181.881" y2="42.544"/>
				
					<polyline style="fill:none;stroke:#263238;stroke-width:2;stroke-linecap:round;stroke-linejoin:round;stroke-miterlimit:10;" points="
					4.473,42.208 188.68,42.208 188.68,34.363 153.074,19.276 4.473,19.276 				"/>
				
					<polygon style="fill:none;stroke:#263238;stroke-width:2;stroke-linecap:round;stroke-linejoin:round;stroke-miterlimit:10;" points="
					153.074,42.208 153.074,19.276 129.538,42.208 129.538,19.276 				"/>
				
					<polygon style="fill:none;stroke:#263238;stroke-width:2;stroke-linecap:round;stroke-linejoin:round;stroke-miterlimit:10;" points="
					129.569,42.208 129.569,19.276 106.033,42.208 106.033,19.276 				"/>
				
					<polygon style="fill:none;stroke:#263238;stroke-width:2;stroke-linecap:round;stroke-linejoin:round;stroke-miterlimit:10;" points="
					106.064,42.208 106.064,19.276 82.528,42.208 82.528,19.276 				"/>
				
					<polygon style="fill:none;stroke:#263238;stroke-width:2;stroke-linecap:round;stroke-linejoin:round;stroke-miterlimit:10;" points="
					82.559,42.208 82.559,19.276 59.023,42.208 59.023,19.276 				"/>
				
					<polygon style="fill:none;stroke:#263238;stroke-width:2;stroke-linecap:round;stroke-linejoin:round;stroke-miterlimit:10;" points="
					59.054,42.208 59.054,19.276 35.518,42.208 35.518,19.276 				"/>
				
					<polygon style="fill:none;stroke:#263238;stroke-width:2;stroke-linecap:round;stroke-linejoin:round;stroke-miterlimit:10;" points="
					35.549,42.208 35.549,19.276 12.013,42.208 12.013,19.276 				"/>
			</g>
		</g>
	</g>
</g>
<g id="Character">
	<g>
		<path style="fill:#FFFFFF;stroke:#263238;stroke-linecap:round;stroke-linejoin:round;stroke-miterlimit:10;" d="M394.919,275.43
			l-12.38,34.172l-0.791-0.206l-7.034-5.071l-2.594,2.559l2.718,13.363c0,0,10.97,5.658,12.974,5.293
			c2.004-0.364,4.373-1.275,4.373-1.275s6.924-47.559,7.107-48.47C399.475,274.884,398.381,272.332,394.919,275.43z"/>
		<g>
			<g>
				<path style="fill:#FFFFFF;stroke:#263238;stroke-linecap:round;stroke-linejoin:round;stroke-miterlimit:10;" d="
					M398.26,453.979c0,0-3.457,5.268-6.279,7.49c-2.822,2.222-9.437,5.423-11.283,6.913c-1.846,1.49-1.03,2.818-0.392,3.458
					c0.639,0.64,9.15,1.109,13.787,1.117c4.637,0.008,13.019-1.971,13.019-1.971s3.699,0.592,4.635,0.125
					c0.936-0.467,1.534-1.521,1.68-3.161c0.145-1.64-0.384-10.899-0.384-10.899L398.26,453.979z"/>
				<path style="fill:#263238;stroke:#263238;stroke-linecap:round;stroke-linejoin:round;stroke-miterlimit:10;" d="M408.2,468.526
					c-3.604,0.58-4.314,1.399-11.289,2.442c-5.743,0.859-14.249-0.198-17.345-0.748c-0.025,0.692,0.384,1.263,0.74,1.619
					c0.639,0.64,9.15,1.109,13.787,1.117c4.637,0.008,13.019-1.971,13.019-1.971s3.699,0.592,4.635,0.125
					c0.928-0.463,1.523-1.505,1.675-3.122C412.24,468.043,410.348,468.18,408.2,468.526z"/>
			</g>
			<g>
				<path style="fill:none;stroke:#263238;stroke-width:2;stroke-linecap:round;stroke-linejoin:round;stroke-miterlimit:10;" d="
					M401.265,457.875c0,0-3.999-1.786-6.693,1.212"/>
				<path style="fill:none;stroke:#263238;stroke-width:2;stroke-linecap:round;stroke-linejoin:round;stroke-miterlimit:10;" d="
					M396.709,456.363c0,0,3.077,2.404,2.666,4.964"/>
			</g>
			<g>
				<path style="fill:none;stroke:#263238;stroke-width:2;stroke-linecap:round;stroke-linejoin:round;stroke-miterlimit:10;" d="
					M398.281,460.648c0,0-3.146-1.46-5.289,1.041"/>
				<path style="fill:none;stroke:#263238;stroke-width:2;stroke-linecap:round;stroke-linejoin:round;stroke-miterlimit:10;" d="
					M394.694,459.418c0,0,2.415,1.978,2.075,4.103"/>
			</g>
			<g>
				<path style="fill:none;stroke:#263238;stroke-width:2;stroke-linecap:round;stroke-linejoin:round;stroke-miterlimit:10;" d="
					M395.967,463.474c0,0-2.911-1.375-7.488,0.242"/>
				<path style="fill:none;stroke:#263238;stroke-width:2;stroke-linecap:round;stroke-linejoin:round;stroke-miterlimit:10;" d="
					M392.325,462.224c0,0,1.598,1.681-0.409,3.2"/>
			</g>
		</g>
		<g>
			<path style="fill:#FFFFFF;stroke:#263238;stroke-linecap:round;stroke-linejoin:round;stroke-miterlimit:10;" d="M421.074,459
				c0,0-1.71,6.119-2.328,6.971c-0.618,0.852-4.688,5.963-4.721,7.791c-0.033,1.828,1.269,3.17,4.51,3.907
				c3.241,0.736,8.3,0.988,12.31-0.833c4.011-1.821,5.83-2.428,6.844-5.229c1.015-2.801,0.339-12.185,0.339-12.185
				S425.484,450.204,421.074,459z"/>
			<path style="fill:#263238;stroke:#263238;stroke-linecap:round;stroke-linejoin:round;stroke-miterlimit:10;" d="M437.69,471.607
				c0.353-0.975,0.501-2.747,0.545-4.643c-0.694,1.077-1.721,2.564-2.82,3.786c-1.968,2.19-5.387,4.622-11.905,5.098
				c-4.787,0.35-7.963-1.726-9.316-2.855c-0.102,0.292-0.166,0.554-0.17,0.768c-0.033,1.828,1.269,3.17,4.51,3.907
				c3.242,0.736,8.3,0.988,12.31-0.833C434.856,475.014,436.675,474.408,437.69,471.607z"/>
			<g>
				<path style="fill:none;stroke:#263238;stroke-width:2;stroke-linecap:round;stroke-linejoin:round;stroke-miterlimit:10;" d="
					M429.903,456.921c0,0-5.488-0.267-7.207,2.959"/>
				<path style="fill:none;stroke:#263238;stroke-width:2;stroke-linecap:round;stroke-linejoin:round;stroke-miterlimit:10;" d="
					M423.897,457.041c0,0,4.708,1.041,5.435,3.237"/>
			</g>
			<g>
				<path style="fill:none;stroke:#263238;stroke-width:2;stroke-linecap:round;stroke-linejoin:round;stroke-miterlimit:10;" d="
					M428.809,460.923c0,0-5.488-0.267-7.207,2.958"/>
				<path style="fill:none;stroke:#263238;stroke-width:2;stroke-linecap:round;stroke-linejoin:round;stroke-miterlimit:10;" d="
					M422.803,461.042c0,0,4.708,1.041,5.435,3.238"/>
			</g>
			<g>
				<path style="fill:none;stroke:#263238;stroke-width:2;stroke-linecap:round;stroke-linejoin:round;stroke-miterlimit:10;" d="
					M427.716,464.925c0,0-5.488-0.267-7.207,2.958"/>
				<path style="fill:none;stroke:#263238;stroke-width:2;stroke-linecap:round;stroke-linejoin:round;stroke-miterlimit:10;" d="
					M421.709,465.044c0,0,4.708,1.041,5.435,3.237"/>
			</g>
		</g>
		<path style="fill:#263238;stroke:#263238;stroke-linecap:round;stroke-linejoin:round;stroke-miterlimit:10;" d="M388.255,338.862
			c0,0,2.109,31.811,3.02,40.74c0.911,8.929,3.097,29.52,3.279,30.066c0.182,0.547,0.729,7.836,0.729,7.836
			s-0.547,2.915,0.182,9.293c0.729,6.378,2.915,19.68,2.915,19.68s-1.822,0.364-1.64,1.822c0.182,1.458,0.911,5.467,0.911,5.467
			s6.924,2.369,8.929,2.551c2.004,0.182,6.013,0,6.013,0s1.64-2.733,1.458-4.191c-0.182-1.458-1.458-5.284-1.458-5.284l0.911-10.751
			l1.459-43.915c0,0,5.648,42.822,6.559,45.919c0.911,3.098,1.822,8.018,1.822,8.018s-1.822,1.458-1.822,2.369
			c0,0.911,0.364,7.289,0.364,7.289s3.645-2.915,7.107-2.369c3.462,0.547,9.112,4.555,9.112,4.555s0.364-3.098,1.093-5.467
			c0.729-2.369-0.73-8.382-1.094-10.022c-0.364-1.64-0.547-4.009-0.182-5.649c0.364-1.64,0.547-6.742,0.729-8.382
			c0.182-1.64-0.181-42.457-0.181-42.457l3.722-46.753l-53.026-1.641L388.255,338.862z"/>
		<g>
			<path style="fill:#92E3A9;stroke:#263238;stroke-linecap:round;stroke-linejoin:round;stroke-miterlimit:10;" d="
				M407.682,260.443c0,0-11.262,5.162-12.044,7.039c-0.782,1.877-4.536,39.104-6.726,53.963c-2.19,14.859-1.252,18.852-1.252,18.852
				s2.346,4.849,25.339,4.067c22.993-0.782,31.127-4.223,31.439-6.257c0.313-2.033,0.626,0.544,0.626-0.864
				c0-1.408,1.721-67.884,0-71.951c-1.72-4.067-11.418-10.793-14.234-11.106C428.016,253.873,407.682,260.443,407.682,260.443z"/>
			<path style="fill:#FFFFFF;stroke:#263238;stroke-linecap:round;stroke-linejoin:round;stroke-miterlimit:10;" d="
				M426.269,257.399c-6.877,1.687-18.586,5.47-18.586,5.47s-11.262,5.162-12.044,7.039c-0.119,0.286-0.308,1.4-0.55,3.129
				c4.964-2.839,16.689-9.432,20.635-10.679c5.059-1.597,9.851-1.997,9.851-1.997l13.046,8.653l5.458,0.133
				c0,0-12.247-10.783-15.708-11.715C427.951,257.32,427.22,257.318,426.269,257.399z"/>
			<path style="fill:#FFFFFF;stroke:#263238;stroke-linecap:round;stroke-linejoin:round;stroke-miterlimit:10;" d="
				M388.939,323.693c-0.009,0.059-0.017,0.12-0.026,0.178c-0.381,2.584-0.647,4.922-0.837,7.045
				c5.55,1.131,19.84,3.597,35.103,2.663c11.975-0.733,18.66-1.167,22.049-1.393c0.044-2.045,0.094-4.429,0.146-7.054
				C437.379,325.951,406.079,328.711,388.939,323.693z"/>
			<path style="fill:none;stroke:#263238;stroke-miterlimit:10;" d="M397.164,336.16c0.079,1.418,0.194,2.8,0.35,4.137"/>
			<path style="fill:none;stroke:#263238;stroke-miterlimit:10;" d="M400.581,303.177c-1.621,9.444-3.752,18.833-3.533,29.867"/>
			<path style="fill:none;stroke:#263238;stroke-miterlimit:10;" d="M403.459,291.18c0,0-1.169,4.882-2.472,12.111"/>
		</g>
		<g>
			<path style="fill:#FFFFFF;stroke:#263238;stroke-linecap:round;stroke-linejoin:round;stroke-miterlimit:10;" d="M368.28,344.606
				c0,0,2.303,4.083,6.393-0.452c2.2-2.439,10.467-27.685,10.467-27.685S368.971,341.956,368.28,344.606z"/>
			<path style="fill:#FFFFFF;stroke:#263238;stroke-linecap:round;stroke-linejoin:round;stroke-miterlimit:10;" d="
				M352.842,268.279l10.723-3.708c0,0-0.111,22.98,1.44,28.47c1.551,5.489,1.551,5.489,1.551,5.489s-10.416-17.38-12.649-23.185
				C351.674,269.541,352.842,268.279,352.842,268.279z"/>
			<path style="fill:#FFFFFF;stroke:#263238;stroke-linecap:round;stroke-linejoin:round;stroke-miterlimit:10;" d="M374.96,301.627
				c0,0-1.899-5.244-5.151-4.17c-3.252,1.074-5.642,0.981-5.887,2.453c-0.245,1.472,8.199,6.975,8.199,6.975
				S378.149,306.533,374.96,301.627z"/>
			<path style="fill:#FFFFFF;stroke:#263238;stroke-linecap:round;stroke-linejoin:round;stroke-miterlimit:10;" d="
				M378.978,326.425c0,0-10.561,17.465-10.698,18.181c0,0-7.239-12.253-16.99-27.281c-9.751-15.028-18.94-50.538-18.94-50.538
				s3.572-4.143,10.425-5.063c6.853-0.921,9.214-0.656,9.214-0.656s6.538,23.134,13.783,33.789
				c7.245,10.655,16.405,18.905,16.405,18.905l2.964,2.707L378.978,326.425z"/>
			<path style="fill:none;stroke:#263238;stroke-miterlimit:10;" d="M351.084,297.744c5.32,1.906,13.217,4.585,19.129,5.935"/>
			<path style="fill:none;stroke:#263238;stroke-miterlimit:10;" d="M345.23,295.581c0,0,0.842,0.325,2.257,0.85"/>
			<path style="fill:none;stroke:#263238;stroke-miterlimit:10;" d="M355.68,293.306c0,0,6.853,6.87,14.013,8.234"/>
		</g>
		<g>
			<g>
				<path style="fill:#FFFFFF;stroke:#263238;stroke-linecap:round;stroke-linejoin:round;stroke-miterlimit:10;" d="
					M390.619,310.939c0,0-8.759-4.067-10.167-4.223c-1.408-0.156-8.603,2.659-9.385,3.285s-1.095,2.033-0.156,2.19
					s2.503-0.939,2.503-0.939l4.067-0.782l1.877,1.095c0,0-6.569,3.91-7.195,5.162c-0.626,1.251-1.721,3.597-1.095,4.067
					c0.626,0.469,0.939,1.564,1.877,1.564c0.938,0,1.478-0.093,1.478-0.093s1.807-0.22,3.215-1.471
					c1.408-1.251,4.536-0.782,4.536-0.782s3.754,1.251,4.692,0.938c0.938-0.313,3.285-1.721,3.285-1.721h1.721L390.619,310.939z"/>
				<path style="fill:none;stroke:#263238;stroke-miterlimit:10;" d="M371.067,320.793c0,0,3.355-3.497,3.737-3.943
					c0.382-0.446,6.051-3.312,6.051-3.312"/>
				<path style="fill:none;stroke:#263238;stroke-miterlimit:10;" d="M372.944,322.357c0,0,4.535-3.978,4.854-4.233
					c0.318-0.255,4.14-1.784,4.14-1.784"/>
			</g>
			<path style="fill:#FFFFFF;stroke:#263238;stroke-linecap:round;stroke-linejoin:round;stroke-miterlimit:10;" d="
				M442.719,267.874c0,0-6.1-2.033-10.323,4.536c-4.223,6.57-6.743,38.201-6.743,38.201l-35.034,0.327l0.626,9.698
				c0,0,33.157,3.583,39.57,3.583s8.134,1.095,8.916-1.251c0.782-2.346,7.681-30.849,8.62-39.922
				C449.289,273.974,445.691,268.5,442.719,267.874z"/>
		</g>
		<path style="fill:#263238;stroke:#263238;stroke-linecap:round;stroke-linejoin:round;stroke-miterlimit:10;" d="M390.987,339.409
			c0,0-9.658-1.458-10.204-0.364c-0.547,1.093,0,16.035,0.911,16.946s7.107,2.187,8.929,1.093c1.822-1.093,2.916-1.822,3.28-2.733
			c0.364-0.911,0.364-12.391-0.364-13.849C392.809,339.045,390.987,339.409,390.987,339.409z"/>
		<path style="fill:#263238;stroke:#263238;stroke-linecap:round;stroke-linejoin:round;stroke-miterlimit:10;" d="M402.467,341.231
			c0,0-1.458,14.76,0.911,15.671c2.369,0.911,7.289,1.276,8.2,1.093c0.911-0.182,4.191-0.729,4.738-2.187
			c0.547-1.458,0.547-12.938,0.182-14.031C416.134,340.685,403.378,339.773,402.467,341.231z"/>
		<path style="fill:#263238;stroke:#263238;stroke-linecap:round;stroke-linejoin:round;stroke-miterlimit:10;" d="M425.427,342.871
			c0,0,0.729,16.582,1.093,17.311c0.364,0.729,7.289,5.284,8.564,5.102c1.276-0.182,11.48-1.276,12.027-3.28
			c0.547-2.005,1.822-18.222,0.729-20.044c-1.093-1.822-3.462-2.551-5.649-2.733c-2.187-0.182-14.942,1.64-14.942,1.64
			S425.609,340.867,425.427,342.871z"/>
		<path style="fill:#263238;stroke:#263238;stroke-linecap:round;stroke-linejoin:round;stroke-miterlimit:10;" d="M412.375,256.299
			l-7.508,4.067l2.659,4.849l-3.754,23.462c0,0,22.211-28.937,22.524-29.406c0.313-0.469,4.536-2.659,4.536-2.659l-1.408-5.787
			l-2.346,0.626L412.375,256.299z"/>
		<g>
			<path style="fill:#FFFFFF;stroke:#263238;stroke-linecap:round;stroke-linejoin:round;stroke-miterlimit:10;" d="M404.45,223.994
				c0,0-1.35,4.162-1.35,4.724c0,0.563,0.337,2.25,0.337,2.25s-4.162,5.849-3.937,6.187c0.225,0.337,2.7,2.924,2.7,2.924
				s0.225,8.773,1.35,8.886c1.125,0.113,8.436,0.113,8.436,0.113l-0.675,12.823l16.76-9.673l0.338-11.248
				c0,0,4.499-5.736,4.499-8.661c0-2.925-0.45-3.487-0.45-3.487L404.45,223.994z"/>
			<path style="fill:#263238;stroke:#263238;stroke-linecap:round;stroke-linejoin:round;stroke-miterlimit:10;" d="
				M432.457,228.831l-17.911-3.093l0.139,1.293l-0.675,6.186c0,0,4.724-3.262,5.624-3.712c0.9-0.45,2.7,2.7,1.687,4.612
				c-1.012,1.912-4.387,4.499-4.387,4.499s3.712,3.824,7.536,4.049c1.566,0.092,2.882-0.081,3.896-0.316l0.041-1.371
				c0,0,4.499-5.736,4.499-8.661C432.908,229.393,432.457,228.831,432.457,228.831z"/>
			<path style="fill:none;stroke:#263238;stroke-miterlimit:10;" d="M404.225,228.381c0,0,1.575-1.125,3.375,0.562"/>
			<ellipse style="fill:#263238;" cx="405.349" cy="231.418" rx="0.562" ry="1.35"/>
			<polygon style="fill:#263238;stroke:#263238;stroke-miterlimit:10;" points="408.836,248.853 415.698,248.065 411.986,252.452 
				411.986,249.078 			"/>
			<polygon style="fill:#FFFFFF;stroke:#263238;stroke-linecap:round;stroke-linejoin:round;stroke-miterlimit:10;" points="
				422.109,230.518 428.367,242.35 431.333,239.517 425.709,230.181 			"/>
			<g>
				<path style="fill:#92E3A9;stroke:#263238;stroke-linecap:round;stroke-linejoin:round;stroke-miterlimit:10;" d="
					M402.243,221.298c0,0-7.931,1.039-6.949,1.367c0.982,0.327,41.913,12.934,41.913,12.934s-0.819-2.947-0.819-3.929
					c0-0.982,1.637-7.368,0.982-13.916c-0.655-6.549-14.498-10.208-21.375-10.863c-6.876-0.655-10.314,2.62-10.969,6.221
					C404.371,216.713,402.243,221.298,402.243,221.298z"/>
				<path style="fill:none;stroke:#263238;stroke-linecap:round;stroke-linejoin:round;stroke-miterlimit:10;" d="M413.605,224.728
					l-7.231-2.603c0,0,4.194-9.544,4.049-10.701c-0.145-1.157-0.145-2.169-0.145-2.169s0.145-1.88,6.508-1.157"/>
			</g>
		</g>
	</g>
</g>
</svg>
