<?xml version="1.0" encoding="utf-8"?>
<!-- Generator: Adobe Illustrator 27.5.0, SVG Export Plug-In . SVG Version: 6.00 Build 0)  -->
<svg version="1.1" id="Camada_1" xmlns="http://www.w3.org/2000/svg" xmlns:xlink="http://www.w3.org/1999/xlink" x="0px" y="0px"
	 viewBox="0 0 1300 1300" style="enable-background:new 0 0 1300 1300;" xml:space="preserve">
<g>
	<g>
		<linearGradient id="SVGID_1_" gradientUnits="userSpaceOnUse" x1="889.7866" y1="397.0357" x2="1036.4583" y2="397.0357">
			<stop  offset="0" style="stop-color:#ED1C24"/>
			<stop  offset="1" style="stop-color:#FFD400"/>
		</linearGradient>
		<path style="fill:url(#SVGID_1_);" d="M983.598,518.004l52.86-241.937L889.787,517.726
			C921.123,515.824,952.476,515.842,983.598,518.004z"/>
		
			<linearGradient id="SVGID_00000057125295394546455370000007670449475963099323_" gradientUnits="userSpaceOnUse" x1="371.9236" y1="489.2198" x2="1036.4583" y2="489.2198">
			<stop  offset="0" style="stop-color:#F04E23"/>
			<stop  offset="0.801" style="stop-color:#FFD400"/>
			<stop  offset="1" style="stop-color:#FFF200"/>
		</linearGradient>
		<path style="fill:url(#SVGID_00000057125295394546455370000007670449475963099323_);" d="M889.787,517.726l146.672-241.659
			L371.924,702.372c91.805-54.98,186.832-104,287.999-138.252C733.861,539.087,811.768,522.462,889.787,517.726z"/>
		
			<linearGradient id="SVGID_00000167379893572005111500000002140620199318538887_" gradientUnits="userSpaceOnUse" x1="817.7083" y1="644.1199" x2="983.5981" y2="644.1199">
			<stop  offset="0" style="stop-color:#BA141A"/>
			<stop  offset="1" style="stop-color:#ED1C24"/>
		</linearGradient>
		<path style="fill:url(#SVGID_00000167379893572005111500000002140620199318538887_);" d="M889.787,517.726l-72.078,118.758
			l110.417,135.417l55.473-253.896C952.476,515.842,921.123,515.824,889.787,517.726z"/>
		
			<linearGradient id="SVGID_00000081631169999050430340000013981856460840485003_" gradientUnits="userSpaceOnUse" x1="263.5417" y1="644.8134" x2="889.7866" y2="644.8134">
			<stop  offset="0" style="stop-color:#F04E23"/>
			<stop  offset="1" style="stop-color:#F37021"/>
		</linearGradient>
		<path style="fill:url(#SVGID_00000081631169999050430340000013981856460840485003_);" d="M817.708,636.484l72.078-118.758
			c-78.018,4.735-155.926,21.36-229.864,46.394c-101.167,34.253-196.194,83.272-287.999,138.252l-108.382,69.528L817.708,636.484z"
			/>
	</g>
	<g>
		<path style="fill:#F99D1C;" d="M889.787,518.33c0,0-1.68,0.044-4.82,0.257c-0.785,0.049-1.661,0.103-2.626,0.163
			c-0.964,0.083-2.015,0.173-3.152,0.27c-2.271,0.22-4.886,0.378-7.805,0.697c-2.918,0.315-6.148,0.663-9.665,1.043
			c-3.513,0.401-7.303,0.942-11.355,1.458c-2.025,0.266-4.115,0.539-6.267,0.822c-2.144,0.341-4.35,0.691-6.613,1.051
			c-4.523,0.742-9.296,1.395-14.247,2.262c-9.884,1.857-20.624,3.649-31.874,6.134c-2.818,0.591-5.674,1.189-8.565,1.795
			c-2.89,0.611-5.824,1.187-8.755,1.933c-5.882,1.398-11.891,2.827-18.002,4.279c-1.528,0.361-3.062,0.724-4.602,1.088
			c-1.543,0.352-3.086,0.732-4.622,1.163c-3.08,0.829-6.183,1.663-9.304,2.503c-6.245,1.667-12.566,3.353-18.937,5.054
			c-6.322,1.879-12.694,3.772-19.091,5.673c-3.198,0.953-6.401,1.908-9.609,2.864l-4.812,1.434c-1.599,0.495-3.181,1.05-4.773,1.572
			c-6.365,2.092-12.731,4.183-19.072,6.266c-6.333,2.108-12.69,4.062-18.855,6.416c-6.202,2.248-12.355,4.478-18.434,6.681
			c-3.043,1.095-6.067,2.184-9.069,3.264c-1.501,0.54-2.997,1.079-4.487,1.615c-1.473,0.582-2.94,1.162-4.401,1.739
			c-11.692,4.617-22.995,9.079-33.713,13.311c-2.698,1.016-5.293,2.174-7.864,3.284c-2.571,1.108-5.103,2.199-7.593,3.272
			c-4.987,2.131-9.806,4.19-14.432,6.167c-4.629,1.975-9.065,3.867-13.284,5.667c-1.054,0.452-2.106,0.874-3.123,1.335
			c-1.013,0.469-2.013,0.932-2.998,1.389c-1.971,0.913-3.885,1.8-5.74,2.659c-7.431,3.421-13.909,6.403-19.244,8.859
			c-10.704,4.86-16.821,7.637-16.821,7.637s5.957-3.102,16.382-8.53c5.23-2.688,11.58-5.952,18.864-9.696
			c1.824-0.932,3.706-1.894,5.644-2.884c0.969-0.495,1.952-0.997,2.948-1.507c1.001-0.5,2.036-0.963,3.073-1.456
			c4.167-1.935,8.548-3.969,13.12-6.092c4.575-2.121,9.34-4.33,14.272-6.616c2.47-1.136,4.982-2.291,7.532-3.464
			c2.553-1.168,5.131-2.386,7.812-3.464c10.671-4.443,21.924-9.128,33.565-13.974c1.459-0.599,2.923-1.2,4.393-1.803
			c1.488-0.558,2.982-1.118,4.481-1.68c2.999-1.124,6.019-2.256,9.057-3.396c6.083-2.265,12.24-4.558,18.445-6.869
			c6.179-2.389,12.554-4.381,18.904-6.525c6.359-2.118,12.743-4.244,19.127-6.371c1.601-0.517,3.191-1.067,4.8-1.557l4.84-1.42
			c3.226-0.946,6.448-1.892,9.664-2.835c6.433-1.881,12.842-3.755,19.199-5.614c6.416-1.65,12.782-3.286,19.071-4.902
			c3.146-0.802,6.272-1.599,9.376-2.391c1.548-0.413,3.103-0.773,4.658-1.107c1.552-0.346,3.098-0.69,4.638-1.033
			c6.16-1.363,12.217-2.704,18.146-4.016c2.958-0.685,5.919-1.2,8.834-1.751c2.917-0.546,5.798-1.085,8.64-1.616
			c11.338-2.284,22.185-3.754,32.152-5.309c4.995-0.71,9.803-1.253,14.366-1.819c2.282-0.273,4.506-0.54,6.668-0.799
			c2.169-0.2,4.276-0.395,6.317-0.583c4.084-0.355,7.895-0.776,11.436-1c3.54-0.217,6.791-0.416,9.727-0.596
			c2.935-0.189,5.565-0.219,7.847-0.303c1.141-0.034,2.198-0.065,3.165-0.094c0.969-0.006,1.849-0.011,2.637-0.016
			C888.109,518.281,889.787,518.33,889.787,518.33z"/>
	</g>
	<g>
		<path d="M358.939,924.553H306.47l-12.521,31.601H268.51l64.195-154.227l63.996,154.227H371.46L358.939,924.553z M350.592,903.883
			l-17.887-44.916l-17.887,44.916H350.592z"/>
		<path d="M518.335,956.154h-26.036l-37.166-49.885H438.24v49.885h-23.055v-147.47h19.478h24.247
			c19.477,0,30.806,7.95,36.768,14.708c7.751,8.546,11.925,20.471,11.925,34.184c0,13.515-4.174,25.439-11.925,33.985
			c-3.577,3.976-9.142,8.547-17.092,11.329L518.335,956.154z M458.909,885.599c9.54,0,16.695-2.782,21.266-7.95
			c5.565-5.962,6.559-14.31,6.559-20.073c0-5.962-0.994-14.31-6.559-20.271c-4.571-5.168-11.726-7.751-21.266-7.751H438.24v56.046
			H458.909z"/>
		<path d="M645.73,956.154h-26.036l-37.165-49.885h-16.894v49.885h-23.055v-147.47h19.478h24.247
			c19.477,0,30.806,7.95,36.768,14.708c7.751,8.546,11.925,20.471,11.925,34.184c0,13.515-4.174,25.439-11.925,33.985
			c-3.577,3.976-9.142,8.547-17.092,11.329L645.73,956.154z M586.305,885.599c9.54,0,16.695-2.782,21.266-7.95
			c5.565-5.962,6.559-14.31,6.559-20.073c0-5.962-0.994-14.31-6.559-20.271c-4.571-5.168-11.726-7.751-21.266-7.751h-20.669v56.046
			H586.305z"/>
		<path d="M700.982,950.39c-8.944-3.776-16.695-9.143-23.453-15.899c-6.757-6.758-12.124-14.509-15.899-23.452
			c-3.776-8.943-5.764-18.683-5.764-28.619c0-9.938,1.987-19.676,5.764-28.818c3.776-8.745,9.142-16.496,15.899-23.452
			c6.757-6.757,14.508-11.925,23.453-15.701c8.943-3.775,18.682-5.764,28.619-5.764s19.676,1.988,28.818,5.764
			c8.744,3.776,16.495,8.944,23.451,15.701c6.758,6.956,11.925,14.707,15.701,23.452c3.776,9.142,5.764,18.881,5.764,28.818
			c0,9.936-1.987,19.676-5.764,28.619c-3.776,8.943-8.943,16.694-15.701,23.452c-6.956,6.757-14.707,12.123-23.451,15.899
			c-9.143,3.776-18.881,5.764-28.818,5.764S709.926,954.166,700.982,950.39z M693.827,846.645
			c-9.54,9.54-14.906,22.26-14.906,35.774s5.366,26.234,14.906,35.774c9.54,9.539,22.26,14.905,35.774,14.905
			c13.515,0,26.234-5.366,35.774-14.905c9.539-9.54,14.905-22.26,14.905-35.774s-5.366-26.234-14.905-35.774
			c-9.54-9.54-22.26-14.906-35.774-14.906C716.087,831.738,703.367,837.105,693.827,846.645z"/>
		<path d="M948.024,962.712l-38.954-88.839l-36.569,88.839l-67.573-154.028h25.439l41.538,97.188l24.445-61.214l11.925-30.408
			l12.919,30.011l26.234,61.611l38.755-97.188h25.241L948.024,962.712z"/>
	</g>
	<g>
		<path style="fill:#F7941E;" d="M269.181,971.555h3.66v4.021h-3.66V971.555z M269.541,983.555h2.94v30.599h-2.94V983.555z"/>
		<path style="fill:#F7941E;" d="M288.56,983.555h2.94v5.699c2.04-3.6,5.46-6.419,11.04-6.419c7.74,0,12.24,5.279,12.24,12.6v18.719
			h-2.94v-18.18c0-6.299-3.54-10.44-9.72-10.44c-6,0-10.62,4.561-10.62,10.92v17.699h-2.94V983.555z"/>
		<path style="fill:#F7941E;" d="M331.46,1006.294v-20.039h-4.44v-2.7h4.44v-9.779h2.94v9.779h10.739v2.7H334.4v19.738
			c0,4.38,2.58,5.94,6.12,5.94c1.5,0,2.76-0.3,4.5-1.08v2.76c-1.56,0.72-3.06,1.08-4.98,1.08
			C335.3,1014.693,331.46,1012.113,331.46,1006.294z"/>
		<path style="fill:#F7941E;" d="M355.34,998.914v-0.12c0-8.88,6.24-15.959,14.519-15.959c8.58,0,14.039,6.959,14.039,16.019
			c0,0.54,0,0.721-0.06,1.2H358.46c0.54,7.62,6,12.06,12,12.06c4.74,0,7.98-2.1,10.5-4.8l2.04,1.8c-3.12,3.36-6.78,5.76-12.659,5.76
			C362.3,1014.873,355.34,1008.453,355.34,998.914z M380.719,997.414c-0.42-6.18-3.96-11.88-10.979-11.88
			c-6.06,0-10.74,5.1-11.28,11.88H380.719z"/>
		<path style="fill:#F7941E;" d="M396.98,983.555h2.94v8.699c2.4-5.46,7.5-9.419,13.56-9.18v3.24h-0.3
			c-7.08,0-13.26,5.34-13.26,15.3v12.539h-2.94V983.555z"/>
		<path style="fill:#F7941E;" d="M425.479,983.555h2.94v5.699c2.04-3.6,5.46-6.419,11.04-6.419c7.74,0,12.24,5.279,12.24,12.6
			v18.719h-2.94v-18.18c0-6.299-3.54-10.44-9.72-10.44c-5.999,0-10.62,4.561-10.62,10.92v17.699h-2.94V983.555z"/>
		<path style="fill:#F7941E;" d="M464.239,1005.274v-0.12c0-6.359,5.459-9.959,13.379-9.959c4.26,0,7.2,0.54,10.14,1.319v-1.319
			c0-6.18-3.78-9.359-10.08-9.359c-3.72,0-6.78,1.02-9.6,2.459l-1.08-2.579c3.36-1.561,6.66-2.641,10.859-2.641
			c4.14,0,7.44,1.141,9.66,3.36c2.04,2.04,3.12,4.859,3.12,8.64v19.079h-2.88v-5.1c-2.1,2.939-5.88,5.819-11.7,5.819
			C470.359,1014.873,464.239,1011.634,464.239,1005.274z M487.818,1002.693v-3.479c-2.58-0.66-6-1.38-10.38-1.38
			c-6.479,0-10.08,2.88-10.08,7.14v0.12c0,4.44,4.2,7.02,8.88,7.02C482.478,1012.113,487.818,1008.274,487.818,1002.693z"/>
		<path style="fill:#F7941E;" d="M507.019,1006.294v-20.039h-4.44v-2.7h4.44v-9.779h2.94v9.779h10.739v2.7h-10.739v19.738
			c0,4.38,2.58,5.94,6.12,5.94c1.5,0,2.76-0.3,4.5-1.08v2.76c-1.56,0.72-3.06,1.08-4.98,1.08
			C510.859,1014.693,507.019,1012.113,507.019,1006.294z"/>
		<path style="fill:#F7941E;" d="M533.958,971.555h3.66v4.021h-3.66V971.555z M534.318,983.555h2.94v30.599h-2.94V983.555z"/>
		<path style="fill:#F7941E;" d="M551.239,998.974v-0.12c0-8.579,6.66-16.019,15.779-16.019c9.06,0,15.659,7.319,15.659,15.899
			v0.119c0,8.58-6.66,16.02-15.779,16.02C557.838,1014.873,551.239,1007.554,551.239,998.974z M579.497,998.974v-0.12
			c0-7.379-5.52-13.259-12.6-13.259c-7.26,0-12.479,5.939-12.479,13.14v0.119c0,7.38,5.52,13.26,12.6,13.26
			C574.278,1012.113,579.497,1006.174,579.497,998.974z"/>
		<path style="fill:#F7941E;" d="M596.238,983.555h2.94v5.699c2.04-3.6,5.46-6.419,11.04-6.419c7.74,0,12.24,5.279,12.24,12.6
			v18.719h-2.94v-18.18c0-6.299-3.54-10.44-9.72-10.44c-6,0-10.62,4.561-10.62,10.92v17.699h-2.94V983.555z"/>
		<path style="fill:#F7941E;" d="M634.998,1005.274v-0.12c0-6.359,5.459-9.959,13.379-9.959c4.26,0,7.2,0.54,10.14,1.319v-1.319
			c0-6.18-3.78-9.359-10.08-9.359c-3.72,0-6.78,1.02-9.6,2.459l-1.08-2.579c3.36-1.561,6.66-2.641,10.859-2.641
			c4.14,0,7.44,1.141,9.66,3.36c2.04,2.04,3.12,4.859,3.12,8.64v19.079h-2.88v-5.1c-2.1,2.939-5.88,5.819-11.7,5.819
			C641.117,1014.873,634.998,1011.634,634.998,1005.274z M658.577,1002.693v-3.479c-2.58-0.66-6-1.38-10.38-1.38
			c-6.479,0-10.08,2.88-10.08,7.14v0.12c0,4.44,4.2,7.02,8.88,7.02C653.237,1012.113,658.577,1008.274,658.577,1002.693z"/>
		<path style="fill:#F7941E;" d="M676.877,970.356h2.94v43.798h-2.94V970.356z"/>
		<path style="fill:#F7941E;" d="M716.297,998.974v-0.12c0-8.579,6.839-16.019,15.599-16.019c5.76,0,9.36,2.64,12.24,5.64
			l-2.101,2.159c-2.64-2.699-5.64-5.039-10.199-5.039c-6.96,0-12.359,5.819-12.359,13.14v0.119c0,7.38,5.579,13.26,12.6,13.26
			c4.319,0,7.68-2.22,10.259-5.1l2.04,1.8c-3.119,3.54-6.84,6.06-12.479,6.06C723.076,1014.873,716.297,1007.554,716.297,998.974z"
			/>
		<path style="fill:#F7941E;" d="M754.156,998.974v-0.12c0-8.579,6.66-16.019,15.779-16.019c9.06,0,15.659,7.319,15.659,15.899
			v0.119c0,8.58-6.659,16.02-15.779,16.02C760.756,1014.873,754.156,1007.554,754.156,998.974z M782.415,998.974v-0.12
			c0-7.379-5.52-13.259-12.6-13.259c-7.26,0-12.479,5.939-12.479,13.14v0.119c0,7.38,5.521,13.26,12.6,13.26
			C777.195,1012.113,782.415,1006.174,782.415,998.974z"/>
		<path style="fill:#F7941E;" d="M799.156,983.555h2.939v5.46c1.981-3.18,4.74-6.18,10.199-6.18c5.34,0,8.641,3.06,10.32,6.6
			c1.979-3.42,5.279-6.6,11.039-6.6c7.26,0,11.76,5.1,11.76,12.779v18.539h-2.94v-18.18c0-6.6-3.42-10.44-9.06-10.44
			c-5.159,0-9.659,3.96-9.659,10.8v17.819h-2.94v-18.359c0-6.359-3.48-10.26-8.94-10.26c-5.459,0-9.779,4.8-9.779,10.979v17.64
			h-2.939V983.555z"/>
		<path style="fill:#F7941E;" d="M860.716,983.555h2.94v6.84c2.64-4.021,6.54-7.56,12.6-7.56c7.38,0,14.88,5.94,14.88,15.899v0.119
			c0,9.96-7.5,16.02-14.88,16.02c-6.12,0-10.079-3.48-12.6-7.319v16.199h-2.94V983.555z M887.954,998.974v-0.12
			c0-8.039-5.579-13.199-11.999-13.199c-6.36,0-12.479,5.34-12.479,13.14v0.12c0,7.859,6.119,13.14,12.479,13.14
			C882.614,1012.054,887.954,1007.193,887.954,998.974z"/>
		<path style="fill:#F7941E;" d="M902.294,1005.274v-0.12c0-6.359,5.46-9.959,13.38-9.959c4.26,0,7.199,0.54,10.14,1.319v-1.319
			c0-6.18-3.78-9.359-10.08-9.359c-3.72,0-6.779,1.02-9.6,2.459l-1.08-2.579c3.36-1.561,6.66-2.641,10.86-2.641
			c4.14,0,7.439,1.141,9.659,3.36c2.04,2.04,3.12,4.859,3.12,8.64v19.079h-2.88v-5.1c-2.101,2.939-5.88,5.819-11.7,5.819
			C908.414,1014.873,902.294,1011.634,902.294,1005.274z M925.873,1002.693v-3.479c-2.58-0.66-6-1.38-10.379-1.38
			c-6.481,0-10.08,2.88-10.08,7.14v0.12c0,4.44,4.2,7.02,8.88,7.02C920.533,1012.113,925.873,1008.274,925.873,1002.693z"/>
		<path style="fill:#F7941E;" d="M943.754,983.555h2.94v5.699c2.04-3.6,5.46-6.419,11.04-6.419c7.739,0,12.239,5.279,12.239,12.6
			v18.719h-2.94v-18.18c0-6.299-3.539-10.44-9.719-10.44c-6,0-10.62,4.561-10.62,10.92v17.699h-2.94V983.555z"/>
		<path style="fill:#F7941E;" d="M981.794,1022.613l1.02-2.58c1.62,0.78,2.94,1.14,5.22,1.14c3.18,0,5.28-1.859,7.56-7.199
			l-14.699-30.419h3.42l12.72,27.358l11.039-27.358h3.24l-13.26,31.679c-2.699,6.42-5.819,8.699-10.199,8.699
			C985.513,1023.933,983.834,1023.513,981.794,1022.613z"/>
	</g>
</g>
</svg>
